<?xml version="1.0" encoding="utf-8"?>
<!-- Generator: Adobe Illustrator 17.0.0, SVG Export Plug-In . SVG Version: 6.00 Build 0)  -->
<!DOCTYPE svg PUBLIC "-//W3C//DTD SVG 1.1//EN" "http://www.w3.org/Graphics/SVG/1.1/DTD/svg11.dtd">
<svg version="1.1" id="Слой_1" xmlns="http://www.w3.org/2000/svg" xmlns:xlink="http://www.w3.org/1999/xlink" x="0px" y="0px"
	 width="35px" height="17px" viewBox="0 0 35 17" enable-background="new 0 0 35 17" xml:space="preserve">
<path fill="#1A1C00" d="M34.599,7.532c0,0-0.001-0.001-0.001-0.001l-7.144-7.109c-0.535-0.533-1.401-0.531-1.934,0.005
	c-0.533,0.535-0.531,1.401,0.005,1.933l4.796,4.773H1.367C0.612,7.133,0,7.745,0,8.5c0,0.755,0.612,1.367,1.367,1.367h28.954
	l-4.796,4.773c-0.535,0.533-0.537,1.398-0.004,1.933c0.533,0.535,1.398,0.537,1.934,0.005l7.144-7.109c0,0,0.001-0.001,0.001-0.001
	C35.134,8.933,35.133,8.065,34.599,7.532z"/>
</svg>
