<?xml version="1.0" encoding="utf-8"?>
<!-- Generator: Adobe Illustrator 17.0.0, SVG Export Plug-In . SVG Version: 6.00 Build 0)  -->
<!DOCTYPE svg PUBLIC "-//W3C//DTD SVG 1.1//EN" "http://www.w3.org/Graphics/SVG/1.1/DTD/svg11.dtd">
<svg version="1.1" id="Слой_1" xmlns="http://www.w3.org/2000/svg" xmlns:xlink="http://www.w3.org/1999/xlink" x="0px" y="0px"
	 width="21.101px" height="24.348px" viewBox="5 4 21.101 24.348" enable-background="new 5 4 21.101 24.348" xml:space="preserve">
<rect x="0" fill="none" width="28" height="28"/>
<g>
	<path d="M15.551,16.986C9.733,16.986,5,21.719,5,27.536c0,0.448,0.364,0.812,0.812,0.812c0.448,0,0.812-0.364,0.812-0.812
		c0-4.923,4.004-8.927,8.927-8.927s8.927,4.004,8.927,8.927c0,0.448,0.364,0.812,0.812,0.812s0.812-0.364,0.812-0.812
		C26.101,21.719,21.368,16.986,15.551,16.986z"/>
	<path d="M15.55,4c-3.133,0-5.681,2.548-5.681,5.681c0,3.133,2.548,5.681,5.681,5.681s5.681-2.549,5.681-5.681
		C21.231,6.548,18.683,4,15.55,4z M15.55,13.739c-2.237,0-4.058-1.821-4.058-4.058c0-2.237,1.821-4.058,4.058-4.058
		s4.058,1.821,4.058,4.058C19.608,11.918,17.787,13.739,15.55,13.739z"/>
</g>
</svg>
