<?xml version="1.0" encoding="utf-8"?>
<!-- Generator: Adobe Illustrator 17.0.0, SVG Export Plug-In . SVG Version: 6.00 Build 0)  -->
<!DOCTYPE svg PUBLIC "-//W3C//DTD SVG 1.1//EN" "http://www.w3.org/Graphics/SVG/1.1/DTD/svg11.dtd">
<svg version="1.1" id="Слой_1" xmlns="http://www.w3.org/2000/svg" xmlns:xlink="http://www.w3.org/1999/xlink" x="0px" y="0px"
	 width="63px" height="62px" viewBox="0 0 63 62" enable-background="new 0 0 63 62" xml:space="preserve">
<g>
	
		<linearGradient id="SVGID_1_" gradientUnits="userSpaceOnUse" x1="-1.5767" y1="87.0031" x2="76.4233" y2="-26.9969" gradientTransform="matrix(1 0 0 -1 -0.02 61.095)">
		<stop  offset="0.1056" style="stop-color:#A2BF7B"/>
		<stop  offset="0.7173" style="stop-color:#F9FF9A"/>
	</linearGradient>
	<path fill="url(#SVGID_1_)" d="M41.494,26.765l-0.237-0.133c-1.671-0.935-3.542-1.785-5.558-2.527l-0.624-0.23v14.117l6.42,6.42
		L41.494,26.765z"/>
	
		<linearGradient id="SVGID_2_" gradientUnits="userSpaceOnUse" x1="-8.7364" y1="82.1043" x2="69.2725" y2="-31.9087" gradientTransform="matrix(1 0 0 -1 -0.02 61.095)">
		<stop  offset="0.1056" style="stop-color:#A2BF7B"/>
		<stop  offset="0.7173" style="stop-color:#F9FF9A"/>
	</linearGradient>
	<path fill="url(#SVGID_2_)" d="M24.527,29.608c-0.298-0.298-0.298-0.783,0-1.081c0.144-0.144,0.336-0.224,0.54-0.224
		c0.204,0,0.396,0.08,0.54,0.224l7.938,7.938V23.37l-0.328-0.101c-1.794-0.553-3.689-1.031-5.634-1.422
		c-4.587-0.921-8.57-1.199-10.536-1.283l-0.505-0.022l0.022,0.505c0.084,1.966,0.363,5.949,1.283,10.536
		c0.39,1.945,0.869,3.84,1.422,5.634l0.101,0.328l13.095,0L24.527,29.608z"/>
	
		<linearGradient id="SVGID_3_" gradientUnits="userSpaceOnUse" x1="-5.0349" y1="84.6369" x2="72.9651" y2="-29.3631" gradientTransform="matrix(1 0 0 -1 -0.02 61.095)">
		<stop  offset="0.1056" style="stop-color:#A2BF7B"/>
		<stop  offset="0.7173" style="stop-color:#F9FF9A"/>
	</linearGradient>
	<path fill="url(#SVGID_3_)" d="M47.221,52.91c-2.845,2.451-6.489,3.8-10.262,3.8c-4.207,0-8.163-1.638-11.138-4.613
		c-1.506-1.506-2.892-3.318-4.119-5.385L21.695,46.7l-0.008-0.012c-0.015-0.022-0.029-0.046-0.043-0.072l-0.01-0.017
		c-0.759-1.291-1.466-2.697-2.101-4.179c-0.519-1.211-1.007-2.513-1.451-3.87l-0.01-0.032c-0.682-2.094-1.265-4.341-1.732-6.681
		C15.015,25.215,15,19.984,15,19.764c0-0.204,0.079-0.396,0.224-0.54C15.368,19.08,15.56,19,15.764,19
		c0.219,0,5.451,0.015,12.072,1.339c2.339,0.468,4.586,1.05,6.678,1.732l0.042,0.014c1.351,0.441,2.651,0.928,3.863,1.448
		c1.484,0.636,2.89,1.343,4.179,2.101l0.017,0.01c0.026,0.014,0.051,0.029,0.072,0.043l0.012,0.008l0.012,0.007
		c2.066,1.227,3.878,2.612,5.384,4.119c2.975,2.975,4.614,6.931,4.614,11.138c0,3.773-1.35,7.417-3.801,10.262l-0.281,0.326
		l3.384,3.385c16.51-15.602,13.852-53.009-9.237-54.894c-11.634-0.95-33,15.5-41.5,33s27.5,38,47.5,24.5
		c0.728-0.491,1.424-1.024,2.094-1.588l-3.322-3.322L47.221,52.91z"/>
	
		<linearGradient id="SVGID_4_" gradientUnits="userSpaceOnUse" x1="-12.2485" y1="79.7013" x2="65.7515" y2="-34.2987" gradientTransform="matrix(1 0 0 -1 -0.02 61.095)">
		<stop  offset="0.1056" style="stop-color:#A2BF7B"/>
		<stop  offset="0.7173" style="stop-color:#F9FF9A"/>
	</linearGradient>
	<path fill="url(#SVGID_4_)" d="M33.994,39.074l-14.118,0l0.23,0.625c0.742,2.018,1.593,3.888,2.527,5.558l0.133,0.237h17.648
		L33.994,39.074z"/>
	
		<linearGradient id="SVGID_5_" gradientUnits="userSpaceOnUse" x1="0.2971" y1="88.2851" x2="78.2971" y2="-25.7149" gradientTransform="matrix(1 0 0 -1 -0.02 61.095)">
		<stop  offset="0.1056" style="stop-color:#A2BF7B"/>
		<stop  offset="0.7173" style="stop-color:#F9FF9A"/>
	</linearGradient>
	<path fill="url(#SVGID_5_)" d="M47.016,30.902c-0.958-0.958-2.056-1.871-3.264-2.713l-0.73-0.508l-0.001,18.26l4.526,4.527
		l0.326-0.388c2.134-2.544,3.309-5.783,3.309-9.12C51.182,37.16,49.703,33.588,47.016,30.902z"/>
	
		<linearGradient id="SVGID_6_" gradientUnits="userSpaceOnUse" x1="-11.6417" y1="80.1165" x2="66.3583" y2="-33.8835" gradientTransform="matrix(1 0 0 -1 -0.02 61.095)">
		<stop  offset="0.1056" style="stop-color:#A2BF7B"/>
		<stop  offset="0.7173" style="stop-color:#F9FF9A"/>
	</linearGradient>
	<path fill="url(#SVGID_6_)" d="M23.681,47.022l0.508,0.73c0.841,1.208,1.754,2.306,2.712,3.265
		c2.686,2.686,6.258,4.165,10.058,4.165c3.336,0,6.575-1.175,9.12-3.308l0.389-0.326l-4.526-4.526H23.681z"/>
	<path fill="#FFFFFF" d="M48.629,51.548l0.281-0.326c2.451-2.845,3.801-6.49,3.801-10.262c0-4.207-1.638-8.163-4.614-11.138
		c-1.506-1.507-3.318-2.892-5.384-4.119L42.7,25.695l-0.012-0.008c-0.022-0.015-0.046-0.029-0.072-0.043l-0.017-0.01
		c-1.289-0.758-2.695-1.465-4.179-2.101c-1.212-0.519-2.512-1.006-3.863-1.448l-0.042-0.014c-2.093-0.681-4.339-1.264-6.678-1.732
		C21.215,19.015,15.984,19,15.764,19c-0.204,0-0.396,0.08-0.54,0.224C15.079,19.368,15,19.56,15,19.764
		c0,0.219,0.015,5.451,1.34,12.072c0.468,2.34,1.051,4.588,1.732,6.681l0.01,0.032c0.444,1.358,0.931,2.659,1.451,3.87
		c0.635,1.482,1.342,2.888,2.101,4.179l0.01,0.017c0.014,0.026,0.029,0.051,0.043,0.072l0.008,0.012l0.007,0.012
		c1.227,2.068,2.613,3.879,4.119,5.385c2.975,2.975,6.931,4.613,11.138,4.613c3.773,0,7.417-1.35,10.262-3.8l0.326-0.281
		l3.322,3.322c0.391-0.328,0.772-0.668,1.143-1.018L48.629,51.548z M35.074,23.875l0.624,0.23c2.017,0.742,3.887,1.592,5.558,2.527
		l0.237,0.133l0,17.647l-6.42-6.42V23.875z M19.37,37.546l-0.101-0.328c-0.553-1.794-1.031-3.689-1.422-5.634
		c-0.921-4.587-1.199-8.57-1.283-10.536l-0.022-0.505l0.505,0.022c1.966,0.084,5.949,0.362,10.536,1.283
		c1.945,0.39,3.84,0.869,5.634,1.422l0.328,0.101v13.095l-7.938-7.938c-0.144-0.144-0.336-0.224-0.54-0.224
		c-0.204,0-0.396,0.08-0.54,0.224c-0.298,0.298-0.298,0.783,0,1.081l7.938,7.938L19.37,37.546z M22.633,45.256
		c-0.935-1.67-1.785-3.54-2.527-5.558l-0.23-0.625l14.118,0l6.42,6.42H22.766L22.633,45.256z M46.079,51.874
		c-2.545,2.133-5.783,3.308-9.12,3.308c-3.799,0-7.371-1.479-10.058-4.165c-0.959-0.959-1.871-2.057-2.712-3.265l-0.508-0.73h18.261
		l4.526,4.526L46.079,51.874z M47.548,50.468l-4.526-4.527l0.001-18.26l0.73,0.508c1.208,0.842,2.306,1.754,3.264,2.713
		c2.687,2.686,4.166,6.258,4.166,10.057c0,3.337-1.175,6.576-3.309,9.12L47.548,50.468z"/>
</g>
</svg>
