<?xml version="1.0" encoding="utf-8"?>
<!-- Generator: Adobe Illustrator 17.0.0, SVG Export Plug-In . SVG Version: 6.00 Build 0)  -->
<!DOCTYPE svg PUBLIC "-//W3C//DTD SVG 1.1//EN" "http://www.w3.org/Graphics/SVG/1.1/DTD/svg11.dtd">
<svg version="1.1" id="Слой_1" xmlns="http://www.w3.org/2000/svg" xmlns:xlink="http://www.w3.org/1999/xlink" x="0px" y="0px"
	 width="63px" height="63px" viewBox="0 0 63 63" enable-background="new 0 0 63 63" xml:space="preserve">
<g>
	<defs>
		<rect id="SVGID_1_" x="0" y="-0.001" width="62.582" height="61.91"/>
	</defs>
	<clipPath id="SVGID_2_">
		<use xlink:href="#SVGID_1_"  overflow="visible"/>
	</clipPath>
	<g clip-path="url(#SVGID_2_)">
		
			<linearGradient id="SVGID_3_" gradientUnits="userSpaceOnUse" x1="-79.8682" y1="85.637" x2="-1.8682" y2="-28.363" gradientTransform="matrix(1 0 0 -1 -0.02 62.095)">
			<stop  offset="0.1056" style="stop-color:#A2BF7B"/>
			<stop  offset="0.7173" style="stop-color:#F9FF9A"/>
		</linearGradient>
		<path fill="url(#SVGID_3_)" d="M-32.058,0.039c-11.634-0.95-33,15.5-41.5,33s27.5,38,47.5,24.5S-7.558,2.039-32.058,0.039z"/>
	</g>
</g>
<g>
	
		<linearGradient id="SVGID_4_" gradientUnits="userSpaceOnUse" x1="-7.8904" y1="83.6832" x2="70.1096" y2="-30.3168" gradientTransform="matrix(1 0 0 -1 -0.02 62.095)">
		<stop  offset="0.1056" style="stop-color:#A2BF7B"/>
		<stop  offset="0.7173" style="stop-color:#F9FF9A"/>
	</linearGradient>
	<path fill="url(#SVGID_4_)" d="M39.598,46.807L39.598,46.807c0.001,0.771,0.003,1.928,0.003,2.387c0,0.549,0.003,1.656,0.005,2.397
		c0.373-0.002,0.799-0.006,1.036-0.01c0.849-0.015,1.705-0.757,1.705-2.38c0-1.157-0.458-2.394-1.743-2.394H39.598z"/>
	
		<linearGradient id="SVGID_5_" gradientUnits="userSpaceOnUse" x1="-24.1538" y1="72.5556" x2="53.8462" y2="-41.4444" gradientTransform="matrix(1 0 0 -1 -0.02 62.095)">
		<stop  offset="0.1056" style="stop-color:#A2BF7B"/>
		<stop  offset="0.7173" style="stop-color:#F9FF9A"/>
	</linearGradient>
	<path fill="url(#SVGID_5_)" d="M29.986,61.735c-3.753-0.54-7.585-1.62-11.487-2.866C22.142,60.349,26.056,61.355,29.986,61.735z"/>
	
		<linearGradient id="SVGID_6_" gradientUnits="userSpaceOnUse" x1="-10.3724" y1="81.9849" x2="67.6276" y2="-32.0151" gradientTransform="matrix(1 0 0 -1 -0.02 62.095)">
		<stop  offset="0.1056" style="stop-color:#A2BF7B"/>
		<stop  offset="0.7173" style="stop-color:#F9FF9A"/>
	</linearGradient>
	<polygon fill="url(#SVGID_6_)" points="27.958,34.376 27.1,36.692 28.809,36.692 	"/>
	
		<linearGradient id="SVGID_7_" gradientUnits="userSpaceOnUse" x1="3.2265" y1="91.2894" x2="81.2265" y2="-22.7106" gradientTransform="matrix(1 0 0 -1 -0.02 62.095)">
		<stop  offset="0.1056" style="stop-color:#A2BF7B"/>
		<stop  offset="0.7173" style="stop-color:#F9FF9A"/>
	</linearGradient>
	<path fill="url(#SVGID_7_)" d="M45.796,31.378c-0.2,0-0.918,0.002-1.425,0.003v2c0.516-0.002,1.164-0.005,1.425-0.005
		c0.536,0,0.972-0.448,0.972-0.999C46.768,31.826,46.332,31.378,45.796,31.378z"/>
	
		<linearGradient id="SVGID_8_" gradientUnits="userSpaceOnUse" x1="4.5773" y1="92.2137" x2="82.5773" y2="-21.7863" gradientTransform="matrix(1 0 0 -1 -0.02 62.095)">
		<stop  offset="0.1056" style="stop-color:#A2BF7B"/>
		<stop  offset="0.7173" style="stop-color:#F9FF9A"/>
	</linearGradient>
	<path fill="url(#SVGID_8_)" d="M46.205,29.153c0-0.412-0.326-0.747-0.727-0.747h-1.106v0v1.498
		c0.387-0.002,0.882-0.004,1.106-0.004C45.878,29.9,46.205,29.565,46.205,29.153z"/>
	
		<linearGradient id="SVGID_9_" gradientUnits="userSpaceOnUse" x1="4.8477" y1="92.3987" x2="82.8477" y2="-21.6013" gradientTransform="matrix(1 0 0 -1 -0.02 62.095)">
		<stop  offset="0.1056" style="stop-color:#A2BF7B"/>
		<stop  offset="0.7173" style="stop-color:#F9FF9A"/>
	</linearGradient>
	<path fill="url(#SVGID_9_)" d="M48.602,57.5c-0.621,0.469-1.257,0.889-1.901,1.286c0.708-0.379,1.401-0.792,2.074-1.247
		c9.547-6.444,14.191-19.382,13.777-31.364c-0.817,5.231-1.937,10.976-3.814,16.237C56.295,49.259,52.98,54.195,48.602,57.5z"/>
	
		<linearGradient id="SVGID_10_" gradientUnits="userSpaceOnUse" x1="-5.0351" y1="85.6368" x2="72.9649" y2="-28.3632" gradientTransform="matrix(1 0 0 -1 -0.02 62.095)">
		<stop  offset="0.1056" style="stop-color:#A2BF7B"/>
		<stop  offset="0.7173" style="stop-color:#F9FF9A"/>
	</linearGradient>
	<path fill="url(#SVGID_10_)" d="M15.414,37.193c1.468-5.863,4.276-10.199,8.839-13.643c0.32-0.241,0.769-0.171,1.003,0.158
		c0.235,0.328,0.166,0.79-0.154,1.031c-4.281,3.232-6.918,7.306-8.299,12.822c-1.266,5.059-1.369,10.855-1.369,17.361
		c0,0.839,0.528,1.576,1.314,1.834c5.657,1.858,11.169,3.549,16.427,3.835c5.668,0.308,10.3-1.051,14.576-4.279
		c4.143-3.128,7.296-7.84,9.638-14.407c2.166-6.07,3.315-12.85,4.154-18.682c0.151-1.052-0.557-2.043-1.579-2.209
		c-4.819-0.784-11.12-1.665-17.108-1.523c-6.292,0.15-11.347,1.37-15.455,3.73c-0.346,0.199-0.784,0.072-0.977-0.284
		c-0.193-0.356-0.07-0.805,0.276-1.004c4.317-2.481,9.591-3.762,16.122-3.917c6.103-0.145,12.487,0.747,17.365,1.54
		c0.686,0.112,1.289,0.437,1.761,0.896C60.028,9.749,53.683,0.929,42.776,0.039c-11.634-0.95-33,15.5-41.5,33
		c-4.319,8.892,2.853,18.555,13.575,24.142C14.319,56.573,14,55.78,14,54.921C14,48.313,14.106,42.418,15.414,37.193z
		 M40.331,57.192c-4.287,0-7.775-3.585-7.775-7.991c0-4.406,3.488-7.991,7.775-7.991c0.396,0,0.718,0.33,0.718,0.738
		s-0.321,0.738-0.718,0.738c-3.496,0-6.34,2.923-6.34,6.516c0,3.593,2.844,6.516,6.34,6.516c3.496,0,6.34-2.923,6.34-6.516
		c0-2.505-1.424-4.818-3.628-5.891c-0.358-0.174-0.511-0.615-0.341-0.983c0.17-0.368,0.598-0.525,0.956-0.351
		c2.702,1.317,4.448,4.153,4.448,7.225C48.106,53.607,44.618,57.192,40.331,57.192z M43.783,49.201c0,2.201-1.31,3.823-3.116,3.855
		c-0.491,0.009-1.722,0.014-1.774,0.014c-0.001,0-0.002,0-0.003,0c-0.189,0-0.371-0.077-0.506-0.214
		c-0.135-0.138-0.211-0.325-0.212-0.521c0,0-0.008-2.27-0.008-3.141c0-0.714-0.005-3.123-0.005-3.123
		c0-0.196,0.075-0.384,0.21-0.523c0.135-0.139,0.317-0.217,0.508-0.217h1.726C42.505,45.332,43.783,46.886,43.783,49.201z
		 M45.761,21.433c3.877,0,7.361,2.519,8.669,6.269c0.134,0.384-0.06,0.806-0.434,0.943c-0.373,0.138-0.784-0.062-0.918-0.445
		c-1.104-3.165-4.044-5.291-7.317-5.291c-4.285,0-7.771,3.583-7.771,7.987c0,4.404,3.486,7.987,7.771,7.987s7.771-3.583,7.771-7.987
		c0-0.407,0.321-0.738,0.718-0.738c0.396,0,0.718,0.33,0.718,0.738c0,5.217-4.13,9.462-9.206,9.462
		c-5.076,0-9.206-4.245-9.206-9.462S40.685,21.433,45.761,21.433z M51.063,32.205v2.113c0,0.407-0.321,0.738-0.718,0.738
		c-0.397,0-0.718-0.33-0.718-0.738v-2.113c0-0.407,0.321-0.738,0.718-0.738C50.742,31.468,51.063,31.798,51.063,32.205z
		 M48.204,32.377c0,1.365-1.08,2.475-2.408,2.475c-0.462,0-2.139,0.008-2.139,0.008c-0.001,0-0.002,0-0.003,0
		c-0.19,0-0.372-0.077-0.506-0.215c-0.135-0.138-0.211-0.327-0.211-0.523v-6.454c0-0.407,0.321-0.738,0.718-0.738h1.824
		c1.193,0,2.163,0.997,2.163,2.223c0,0.467-0.141,0.901-0.381,1.259C47.833,30.865,48.204,31.577,48.204,32.377z M27.95,28.485
		c4.287,0,7.775,3.585,7.775,7.991c0,4.406-3.488,7.991-7.775,7.991c-3.205,0-6.041-1.977-7.226-5.037
		c-0.147-0.379,0.033-0.808,0.401-0.958c0.368-0.15,0.786,0.034,0.932,0.412c0.966,2.495,3.279,4.107,5.893,4.107
		c3.496,0,6.34-2.923,6.34-6.516c0-3.593-2.844-6.516-6.34-6.516c-3.496,0-6.34,2.923-6.34,6.516c0,0.408-0.321,0.738-0.718,0.738
		c-0.396,0-0.718-0.33-0.718-0.738C20.175,32.07,23.663,28.485,27.95,28.485z M24.8,38.752l2.358-6.363
		c0.002-0.006,0.004-0.011,0.006-0.017c0.133-0.333,0.445-0.549,0.795-0.549h0.001c0.35,0,0.662,0.215,0.795,0.548
		c0.003,0.007,0.005,0.013,0.008,0.02l2.336,6.363c0.14,0.381-0.047,0.807-0.418,0.951c-0.083,0.032-0.169,0.048-0.253,0.048
		c-0.29,0-0.563-0.182-0.672-0.477l-0.407-1.107h-2.797l-0.411,1.109c-0.141,0.381-0.556,0.572-0.926,0.427
		C24.845,39.559,24.659,39.133,24.8,38.752z"/>
</g>
</svg>
