<?xml version="1.0" encoding="utf-8"?>
<!-- Generator: Adobe Illustrator 23.0.0, SVG Export Plug-In . SVG Version: 6.00 Build 0)  -->
<svg version="1.1" id="Слой_1" xmlns="http://www.w3.org/2000/svg" xmlns:xlink="http://www.w3.org/1999/xlink" x="0px" y="0px"
	 viewBox="0 0 63 62" style="enable-background:new 0 0 63 62;" xml:space="preserve">
<style type="text/css">
	.st0{fill:#FFFFFF;}
</style>
<g>
	<path class="st0" d="M49.8,53.5c0-0.1-0.1-0.2-0.2-0.3c-0.1-0.1-0.2-0.1-0.3-0.2c-0.1,0-0.2,0-0.4,0c-0.1,0-0.2,0.1-0.3,0.2
		c-0.1,0.1-2.3,2-9,2c-2.5,0-6.9-1.2-12-3.2l0,0c-4.5-1.8-7.6-3.4-8.3-4C20,38,29.5,23.2,30.6,21.4L41.2,17h1.7l2.6,3.8h-3.7
		c-0.2,0-0.4,0.1-0.5,0.2c-0.1,0.1-0.2,0.3-0.2,0.5s0.1,0.4,0.2,0.5c0.1,0.1,0.3,0.2,0.5,0.2h4.4V23c0,0.2-0.1,0.4-0.2,0.5
		s-0.3,0.2-0.5,0.2h-7.7c-0.7,0-1.3,0.2-1.9,0.6s-1,0.9-1.3,1.5L31,33.2c-0.1,0.1-0.1,0.3-0.1,0.4s0,0.3,0.1,0.4
		c1.1,1.7,1.3,6.2,1.3,7.8c0,0,0,2.6-1.9,3.9c-0.2,0.1-0.3,0.3-0.3,0.5s0,0.4,0.1,0.6c0.1,0.2,0.3,0.3,0.5,0.3s0.4,0,0.5-0.1
		c2-1.4,2.4-3.9,2.5-4.8c0.6-0.5,2.3-1.9,4.4-1.9c2.7,0,4.7,1.4,4.7,1.4c0.1,0.1,0.3,0.1,0.4,0.1c0.1,0,0.3-0.1,0.4-0.1
		c0,0,5-3.6,9.8-3.6c2.5,0,4.2,0.6,5.2,1c0.5,0.2,1,0.5,1.4,0.8v2.3c0.4-1.1,0.8-2.2,1.1-3.4c-0.7-0.6-3-2.3-7.6-2.3
		c-4.5,0-8.9,2.7-10.2,3.6c-0.8-0.5-2.7-1.4-5.1-1.4c-1.9,0-3.4,0.8-4.4,1.5c-0.1-1.9-0.4-5-1.3-6.8l3.4-7c0.2-0.4,0.5-0.7,0.8-0.9
		s0.7-0.3,1.2-0.3h7.7c0.6,0,1.1-0.2,1.5-0.7c0.4-0.4,0.6-1,0.6-1.6v-1.5c0-0.2,0-0.3-0.1-0.4l-3.6-5.3c-0.1-0.1-0.2-0.2-0.3-0.2
		c-0.1-0.1-0.2-0.1-0.3-0.1h-2.2c-0.1,0-0.2,0-0.3,0.1l-10.9,4.5c-0.1,0.1-0.3,0.2-0.3,0.3c0,0-2.8,4.2-5.6,9.7
		c-3.8,7.4-5.9,13.5-6.2,18.1c0,0.3,0.1,0.5,0.3,0.8c0.9,1,5.3,3,9.1,4.5c7.3,2.8,10.9,3.3,12.4,3.3c3.1,0,5.7-0.4,7.7-1.2
		c0.5-0.2,0.9-0.4,1.4-0.7l0.8,2.1c0.4-0.3,0.8-0.6,1.2-0.9L49.8,53.5z"/>
	<path class="st0" d="M42.7,47.6c-0.3-0.3-0.4-0.6-0.5-0.9c-0.1-0.4-0.1-0.7-0.1-1.1l0.4-2.2c0-0.1,0-0.2,0-0.3s-0.1-0.2-0.1-0.3
		c-0.1-0.1-0.1-0.2-0.2-0.2c-0.1-0.1-0.2-0.1-0.3-0.1s-0.2,0-0.3,0c-0.1,0-0.2,0.1-0.3,0.1c-0.1,0.1-0.1,0.1-0.2,0.2
		c-0.1,0.1-0.1,0.2-0.1,0.3l-0.4,2.2c-0.1,0.6-0.1,1.2,0.1,1.8s0.5,1.1,0.9,1.6l4,4.1c0.1,0.1,0.3,0.2,0.5,0.2s0.4-0.1,0.5-0.2
		c0.1-0.1,0.2-0.3,0.2-0.5c0-0.2-0.1-0.4-0.2-0.5L42.7,47.6z"/>
</g>
</svg>
