<svg width="98" height="79" viewBox="0 0 98 79" fill="none" xmlns="http://www.w3.org/2000/svg">
<path fill-rule="evenodd" clip-rule="evenodd" d="M97.9948 21.5075L96.6618 21.5004L96.6551 22.6838L97.9881 22.6904L97.9834 23.5806L96.6499 23.5735L96.6372 25.9095L97.9702 25.9161L97.965 26.8063L95.7061 26.7944L95.7406 20.6055L98 20.6178L97.9948 21.5075ZM91.0953 22.7131L93.5064 22.7255L93.5182 20.5941L94.4445 20.5993L94.4095 26.7878L93.4837 26.7831L93.5012 23.6156L91.0905 23.6028L91.0726 26.7703L90.1462 26.7655L90.1812 20.577L91.1071 20.5818L91.0953 22.7131ZM89.3717 20.5728L89.367 21.4625L88.3943 21.4577L88.3645 26.7561L87.4386 26.7513L87.4684 21.453L86.4707 21.4478L86.4754 20.5576L89.3717 20.5728Z" fill="#3D606F"/>
<path fill-rule="evenodd" clip-rule="evenodd" d="M97.9948 21.5075L96.6618 21.5004L96.6551 22.6838L97.9881 22.6904L97.9834 23.5806L96.6499 23.5735L96.6372 25.9095L97.9702 25.9161L97.965 26.8063L95.7061 26.7944L95.7406 20.6055L98 20.6178L97.9948 21.5075ZM91.0953 22.7131L93.5064 22.7255L93.5182 20.5941L94.4445 20.5993L94.4095 26.7878L93.4837 26.7831L93.5012 23.6156L91.0905 23.6028L91.0726 26.7703L90.1462 26.7655L90.1812 20.577L91.1071 20.5818L91.0953 22.7131ZM89.3717 20.5728L89.367 21.4625L88.3943 21.4577L88.3645 26.7561L87.4386 26.7513L87.4684 21.453L86.4707 21.4478L86.4754 20.5576L89.3717 20.5728Z" fill="#1A1C00"/>
<path fill-rule="evenodd" clip-rule="evenodd" d="M85.7723 13.1393C85.7676 13.8523 85.7723 14.56 85.777 15.2702C84.8649 15.6241 83.9612 15.978 83.0538 16.3181C83.0817 18.6996 83.1214 21.0863 83.1602 23.4631C83.1999 25.8451 83.2255 28.2289 83.2345 30.6109C82.2987 30.9767 81.3633 31.3353 80.4233 31.6655C80.4138 29.2674 80.3883 26.8669 80.3491 24.4736C80.3098 22.0802 80.2701 19.6822 80.2427 17.2836C79.3395 17.5678 78.4458 17.8488 77.5469 18.1093C77.5427 17.3869 77.2982 15.8965 79.3093 15.3934C82.0509 14.5657 83.0259 14.1825 85.7723 13.1393ZM69.6142 29.373C70.42 29.0447 71.2352 28.7093 72.0409 28.3559C72.0641 28.4587 72.0561 28.6473 72.0736 28.9111C72.1019 29.3432 72.1256 29.6758 72.1379 29.9098C72.1719 30.5408 72.2712 31.0212 72.4206 31.3443C72.5724 31.6726 72.8944 31.7891 73.3796 31.6821C73.7234 31.6063 74.0009 31.3969 74.2175 31.0676C74.4364 30.7355 74.4847 30.2987 74.4076 29.762C74.3182 29.1428 74.0274 28.5255 73.5413 27.8656C73.2812 27.5122 72.9427 27.0948 72.5039 26.6301C71.2706 25.323 70.481 24.3604 70.1235 23.7753C69.7632 23.1841 69.6166 22.4204 69.6374 21.4895C69.6629 20.3269 69.958 19.3406 70.5822 18.5096C71.2082 17.6763 72.0149 17.1642 72.9715 16.9046C74.3173 16.5384 75.2767 16.6791 75.8616 17.3845C76.439 18.0809 76.8017 19.1336 76.945 20.5448C76.1487 20.9504 75.3524 21.3417 74.5603 21.7188C74.5603 21.6558 74.5532 21.5999 74.5419 21.5482C74.5301 21.4947 74.5277 21.4378 74.5187 21.3772C74.5093 21.3161 74.4814 21.2716 74.4719 21.2266C74.4251 20.9854 74.3821 20.6528 74.3102 20.2326C74.1409 19.2439 73.7872 18.8346 73.2311 18.9976C72.6897 19.1563 72.4277 19.5978 72.4069 20.3359C72.3814 21.2346 72.946 22.2404 74.1296 23.3556C74.3447 23.5583 74.5286 23.7606 74.7083 23.9321C74.8894 24.1045 75.1145 24.3499 75.3987 24.647C75.9482 25.2221 76.3927 25.8503 76.7227 26.5462C77.0504 27.2355 77.1866 28.0248 77.154 28.9088C77.1081 30.1367 76.7284 31.2349 75.9959 32.1743C75.2606 33.1175 74.3849 33.731 73.3701 33.9774C72.1341 34.2768 71.1524 33.9622 70.4294 33.0346C69.7031 32.1032 69.4289 30.8829 69.6142 29.373ZM64.6729 24.8568C64.8464 22.4673 66.5255 22.5161 67.4608 22.3759C67.4698 25.1724 67.5072 23.7772 67.5535 26.5671C67.5994 29.3588 67.6415 32.1558 67.6552 34.9499C66.7151 35.1044 65.7841 35.2546 64.8535 35.3716C64.8398 32.5755 64.8048 29.7762 64.7561 26.9821C64.7074 24.1874 64.6866 27.6557 64.6729 24.8568ZM55.9756 27.4785C55.7117 28.9533 55.4521 30.4266 55.1882 31.8952C54.9244 33.3639 54.6464 34.8325 54.373 36.2977C53.5767 36.3096 52.771 36.2906 51.979 36.2741C51.465 33.4496 50.9268 30.6228 50.3859 27.8026C49.8435 24.9753 49.3068 22.1504 48.7971 19.3188C49.7929 19.3491 50.7888 19.3657 51.7799 19.3818C51.9969 21.2389 52.2475 23.0931 52.493 24.9421C52.7384 26.7921 52.9932 28.6439 53.2476 30.4982C53.5299 28.6534 53.8108 26.8035 54.0955 24.954C54.3801 23.1021 54.3423 23.2859 54.6525 21.4317C54.9849 19.3074 56.1931 19.3515 56.7955 19.3235C57.1052 21.1616 57.4296 22.9993 57.7634 24.8322C58.0968 26.6675 58.4344 28.5009 58.7725 30.3338C58.9579 28.4611 59.1546 26.5884 59.3423 24.7152C59.53 22.8401 59.7357 20.9594 59.9537 19.0772C60.9633 18.9976 61.9728 18.8991 62.9824 18.7863C62.4868 21.6813 62.0149 24.5674 61.561 27.4482C61.1075 30.3224 60.6389 33.199 60.1575 36.0751C59.3655 36.1267 58.5734 36.1713 57.7866 36.211C57.4897 34.76 57.1951 33.3032 56.8972 31.8531C56.5974 30.3963 56.2763 28.9367 55.9756 27.4785ZM47.9081 19.2766C47.9128 19.9962 47.9128 20.7178 47.9176 21.4402C47.005 21.3957 46.0971 21.3464 45.1849 21.2711C45.2128 23.6744 45.2521 26.0748 45.2913 28.4729C45.331 30.871 45.3608 33.2715 45.3703 35.6738C44.4255 35.5805 43.485 35.4867 42.5402 35.3602C42.5312 32.9692 42.501 30.5759 42.4617 28.1887C42.4225 25.8005 42.3828 23.4072 42.3553 21.0157C41.4564 20.9129 40.0993 20.8073 39.2056 20.7016C39.2009 19.9868 39.4832 18.3533 41.1065 18.7664C43.8529 19.0829 45.1523 19.1122 47.9081 19.2766Z" fill="#3D606F"/>
<path fill-rule="evenodd" clip-rule="evenodd" d="M85.7723 13.1393C85.7676 13.8523 85.7723 14.56 85.777 15.2702C84.8649 15.6241 83.9612 15.978 83.0538 16.3181C83.0817 18.6996 83.1214 21.0863 83.1602 23.4631C83.1999 25.8451 83.2255 28.2289 83.2345 30.6109C82.2987 30.9767 81.3633 31.3353 80.4233 31.6655C80.4138 29.2674 80.3883 26.8669 80.3491 24.4736C80.3098 22.0802 80.2701 19.6822 80.2427 17.2836C79.3395 17.5678 78.4458 17.8488 77.5469 18.1093C77.5427 17.3869 77.2982 15.8965 79.3093 15.3934C82.0509 14.5657 83.0259 14.1825 85.7723 13.1393ZM69.6142 29.373C70.42 29.0447 71.2352 28.7093 72.0409 28.3559C72.0641 28.4587 72.0561 28.6473 72.0736 28.9111C72.1019 29.3432 72.1256 29.6758 72.1379 29.9098C72.1719 30.5408 72.2712 31.0212 72.4206 31.3443C72.5724 31.6726 72.8944 31.7891 73.3796 31.6821C73.7234 31.6063 74.0009 31.3969 74.2175 31.0676C74.4364 30.7355 74.4847 30.2987 74.4076 29.762C74.3182 29.1428 74.0274 28.5255 73.5413 27.8656C73.2812 27.5122 72.9427 27.0948 72.5039 26.6301C71.2706 25.323 70.481 24.3604 70.1235 23.7753C69.7632 23.1841 69.6166 22.4204 69.6374 21.4895C69.6629 20.3269 69.958 19.3406 70.5822 18.5096C71.2082 17.6763 72.0149 17.1642 72.9715 16.9046C74.3173 16.5384 75.2767 16.6791 75.8616 17.3845C76.439 18.0809 76.8017 19.1336 76.945 20.5448C76.1487 20.9504 75.3524 21.3417 74.5603 21.7188C74.5603 21.6558 74.5532 21.5999 74.5419 21.5482C74.5301 21.4947 74.5277 21.4378 74.5187 21.3772C74.5093 21.3161 74.4814 21.2716 74.4719 21.2266C74.4251 20.9854 74.3821 20.6528 74.3102 20.2326C74.1409 19.2439 73.7872 18.8346 73.2311 18.9976C72.6897 19.1563 72.4277 19.5978 72.4069 20.3359C72.3814 21.2346 72.946 22.2404 74.1296 23.3556C74.3447 23.5583 74.5286 23.7606 74.7083 23.9321C74.8894 24.1045 75.1145 24.3499 75.3987 24.647C75.9482 25.2221 76.3927 25.8503 76.7227 26.5462C77.0504 27.2355 77.1866 28.0248 77.154 28.9088C77.1081 30.1367 76.7284 31.2349 75.9959 32.1743C75.2606 33.1175 74.3849 33.731 73.3701 33.9774C72.1341 34.2768 71.1524 33.9622 70.4294 33.0346C69.7031 32.1032 69.4289 30.8829 69.6142 29.373ZM64.6729 24.8568C64.8464 22.4673 66.5255 22.5161 67.4608 22.3759C67.4698 25.1724 67.5072 23.7772 67.5535 26.5671C67.5994 29.3588 67.6415 32.1558 67.6552 34.9499C66.7151 35.1044 65.7841 35.2546 64.8535 35.3716C64.8398 32.5755 64.8048 29.7762 64.7561 26.9821C64.7074 24.1874 64.6866 27.6557 64.6729 24.8568ZM55.9756 27.4785C55.7117 28.9533 55.4521 30.4266 55.1882 31.8952C54.9244 33.3639 54.6464 34.8325 54.373 36.2977C53.5767 36.3096 52.771 36.2906 51.979 36.2741C51.465 33.4496 50.9268 30.6228 50.3859 27.8026C49.8435 24.9753 49.3068 22.1504 48.7971 19.3188C49.7929 19.3491 50.7888 19.3657 51.7799 19.3818C51.9969 21.2389 52.2475 23.0931 52.493 24.9421C52.7384 26.7921 52.9932 28.6439 53.2476 30.4982C53.5299 28.6534 53.8108 26.8035 54.0955 24.954C54.3801 23.1021 54.3423 23.2859 54.6525 21.4317C54.9849 19.3074 56.1931 19.3515 56.7955 19.3235C57.1052 21.1616 57.4296 22.9993 57.7634 24.8322C58.0968 26.6675 58.4344 28.5009 58.7725 30.3338C58.9579 28.4611 59.1546 26.5884 59.3423 24.7152C59.53 22.8401 59.7357 20.9594 59.9537 19.0772C60.9633 18.9976 61.9728 18.8991 62.9824 18.7863C62.4868 21.6813 62.0149 24.5674 61.561 27.4482C61.1075 30.3224 60.6389 33.199 60.1575 36.0751C59.3655 36.1267 58.5734 36.1713 57.7866 36.211C57.4897 34.76 57.1951 33.3032 56.8972 31.8531C56.5974 30.3963 56.2763 28.9367 55.9756 27.4785ZM47.9081 19.2766C47.9128 19.9962 47.9128 20.7178 47.9176 21.4402C47.005 21.3957 46.0971 21.3464 45.1849 21.2711C45.2128 23.6744 45.2521 26.0748 45.2913 28.4729C45.331 30.871 45.3608 33.2715 45.3703 35.6738C44.4255 35.5805 43.485 35.4867 42.5402 35.3602C42.5312 32.9692 42.501 30.5759 42.4617 28.1887C42.4225 25.8005 42.3828 23.4072 42.3553 21.0157C41.4564 20.9129 40.0993 20.8073 39.2056 20.7016C39.2009 19.9868 39.4832 18.3533 41.1065 18.7664C43.8529 19.0829 45.1523 19.1122 47.9081 19.2766Z" fill="#1A1C00"/>
<path fill-rule="evenodd" clip-rule="evenodd" d="M91.4998 29.4829C91.4875 30.267 91.4752 31.0501 91.4629 31.8308C90.5442 32.2794 89.6306 32.7281 88.7175 33.1738C88.6773 35.7581 88.6371 38.3395 88.5965 40.9205C88.5563 43.5019 88.5161 46.0857 88.4754 48.6667C87.5245 49.049 86.5745 49.4313 85.6293 49.8079C85.669 47.2459 85.7092 44.6844 85.7494 42.1247C85.7891 39.5632 85.8293 37.0007 85.8695 34.4364C84.9625 34.8196 84.0565 35.1688 83.1557 35.5189C83.1676 34.7576 83.0371 32.9692 85.3952 32.3088C88.1591 31.1912 88.726 30.8648 91.4998 29.4829ZM81.8105 33.7537C81.7982 34.5179 81.7863 35.2792 81.7745 36.0405C80.4326 36.4943 79.091 36.942 77.7557 37.3518C77.7429 38.1818 77.7297 39.0123 77.7169 39.8399C77.7042 40.667 77.6904 41.497 77.6777 42.3247C78.682 42.0257 77.5429 42.3948 78.5529 42.0575C80.3337 42.0243 80.6728 42.9178 80.6605 43.6928C79.65 44.033 78.6456 44.3537 77.6413 44.6531C77.6266 45.5959 77.6119 46.5415 77.5973 47.4842C77.5826 48.4269 77.5675 49.3697 77.5528 50.3129C79.0542 49.8562 80.5555 49.3687 82.0573 48.86C82.0455 49.6132 82.0341 50.3693 82.0218 51.1197C79.5705 51.945 77.1258 52.685 74.6821 53.3591C74.7275 50.4479 74.7734 47.5316 74.8188 44.6176C74.8642 41.7069 74.91 38.7901 74.9554 35.8737C77.2393 35.2299 79.5247 34.5259 81.8105 33.7537ZM64.3336 37.9719C65.1758 37.8715 66.7735 37.5579 67.506 39.6087C67.9358 40.9432 67.7249 40.2781 68.1548 41.6041C68.5836 42.9273 69.0253 44.2372 69.4603 45.5494C69.4826 44.1472 69.5043 42.7482 69.5265 41.3464C69.5483 39.9469 69.57 38.5451 69.5923 37.1433C70.5285 36.959 71.4648 36.7719 72.402 36.5677C72.3561 39.4874 72.3107 42.4038 72.2649 45.3206C72.2195 48.237 72.1736 51.1538 72.1282 54.0673C71.2851 54.2616 70.4415 54.4525 69.5984 54.6358C69.1667 53.1009 68.7279 51.5603 68.3028 50.0254C67.8753 48.48 67.445 46.9309 67.019 45.3765C66.9934 47.0067 66.9679 48.6392 66.9424 50.267C66.9173 51.8943 66.8918 53.524 66.8662 55.1517C65.93 55.3114 64.9942 55.4492 64.0584 55.5866C64.1043 52.6537 64.1501 49.7151 64.196 46.7821C64.2419 43.8463 64.2882 40.9077 64.3336 37.9719ZM56.9362 50.6033C57.6393 50.5697 58.3434 50.528 59.0466 50.483C58.8839 49.3342 58.7203 48.1825 58.5624 47.0337C58.4049 45.882 58.247 44.736 58.089 43.5839C57.8951 44.7554 57.6956 45.9237 57.5069 47.0953C57.3187 48.2635 57.1244 49.4322 56.9362 50.6033ZM56.8175 38.4987C57.7845 38.4684 59.3998 38.0605 60.2088 41.2256C60.6959 44.1386 60.6992 44.1585 61.1872 47.055C61.6742 49.9406 62.1627 52.8294 62.6559 55.7126C61.7045 55.814 60.7526 55.913 59.8008 56.0116C59.6476 54.9073 59.4948 53.7997 59.3473 52.6892C58.429 52.748 57.5112 52.8034 56.5934 52.8531C56.3777 53.9911 56.1673 55.129 55.9574 56.2674C55.04 56.2953 54.1227 56.3067 53.2049 56.3181C53.8063 53.3572 54.4078 50.3911 55.0083 47.4245C55.6098 44.456 56.2108 41.4757 56.8175 38.4987ZM52.3376 56.3223C50.1634 56.2769 48.4252 56.2025 46.2586 56.0253C46.3044 53.0729 46.3512 50.1154 46.3971 47.163C46.4434 44.2078 46.4893 41.2531 46.5357 38.295C47.4681 38.3746 49.0872 38.1401 49.2953 40.939C49.2551 43.5199 49.2536 43.6241 49.213 46.2032C49.1733 48.7813 49.1326 51.3599 49.0924 53.938C50.3275 53.9835 51.5678 54.0261 52.8091 54.0384L52.3376 56.3223ZM39.5733 47.4634C40.214 47.5799 40.7715 47.398 41.2349 46.9067C41.6983 46.4164 41.9423 45.3884 41.948 43.8212C41.9537 42.202 41.7253 41.1299 41.2567 40.5889C40.7923 40.0521 40.2698 39.7693 39.6939 39.739C39.6735 41.028 39.6537 42.3171 39.6333 43.6009C39.6135 44.8876 39.5931 46.1767 39.5733 47.4634ZM39.5411 49.5057C39.5265 50.4323 39.5118 51.3608 39.4976 52.2875C39.483 53.2141 39.4688 54.1374 39.4541 55.0641C38.5127 54.8741 37.5764 54.6875 36.6401 54.5037C36.6855 51.5953 36.7309 48.6842 36.7768 45.7759C36.8222 42.8676 36.8676 39.9536 36.913 37.0424C37.7235 37.1756 38.5335 37.3125 39.3454 37.438C41.0042 37.6943 42.3565 38.2211 43.3949 39.0857C43.9122 39.5163 44.3014 40.1464 44.552 40.9636C44.8031 41.7836 44.9237 42.8088 44.9213 44.0349C44.919 45.1842 44.7946 46.1501 44.5407 46.9271C44.2872 47.7045 43.8928 48.2839 43.3718 48.6671C42.3263 49.4351 41.0481 49.7307 39.5411 49.5057Z" fill="#3D606F"/>
<path fill-rule="evenodd" clip-rule="evenodd" d="M91.4998 29.4829C91.4875 30.267 91.4752 31.0501 91.4629 31.8308C90.5442 32.2794 89.6306 32.7281 88.7175 33.1738C88.6773 35.7581 88.6371 38.3395 88.5965 40.9205C88.5563 43.5019 88.5161 46.0857 88.4754 48.6667C87.5245 49.049 86.5745 49.4313 85.6293 49.8079C85.669 47.2459 85.7092 44.6844 85.7494 42.1247C85.7891 39.5632 85.8293 37.0007 85.8695 34.4364C84.9625 34.8196 84.0565 35.1688 83.1557 35.5189C83.1676 34.7576 83.0371 32.9692 85.3952 32.3088C88.1591 31.1912 88.726 30.8648 91.4998 29.4829ZM81.8105 33.7537C81.7982 34.5179 81.7863 35.2792 81.7745 36.0405C80.4326 36.4943 79.091 36.942 77.7557 37.3518C77.7429 38.1818 77.7297 39.0123 77.7169 39.8399C77.7042 40.667 77.6904 41.497 77.6777 42.3247C78.682 42.0257 77.5429 42.3948 78.5529 42.0575C80.3337 42.0243 80.6728 42.9178 80.6605 43.6928C79.65 44.033 78.6456 44.3537 77.6413 44.6531C77.6266 45.5959 77.6119 46.5415 77.5973 47.4842C77.5826 48.4269 77.5675 49.3697 77.5528 50.3129C79.0542 49.8562 80.5555 49.3687 82.0573 48.86C82.0455 49.6132 82.0341 50.3693 82.0218 51.1197C79.5705 51.945 77.1258 52.685 74.6821 53.3591C74.7275 50.4479 74.7734 47.5316 74.8188 44.6176C74.8642 41.7069 74.91 38.7901 74.9554 35.8737C77.2393 35.2299 79.5247 34.5259 81.8105 33.7537ZM64.3336 37.9719C65.1758 37.8715 66.7735 37.5579 67.506 39.6087C67.9358 40.9432 67.7249 40.2781 68.1548 41.6041C68.5836 42.9273 69.0253 44.2372 69.4603 45.5494C69.4826 44.1472 69.5043 42.7482 69.5265 41.3464C69.5483 39.9469 69.57 38.5451 69.5923 37.1433C70.5285 36.959 71.4648 36.7719 72.402 36.5677C72.3561 39.4874 72.3107 42.4038 72.2649 45.3206C72.2195 48.237 72.1736 51.1538 72.1282 54.0673C71.2851 54.2616 70.4415 54.4525 69.5984 54.6358C69.1667 53.1009 68.7279 51.5603 68.3028 50.0254C67.8753 48.48 67.445 46.9309 67.019 45.3765C66.9934 47.0067 66.9679 48.6392 66.9424 50.267C66.9173 51.8943 66.8918 53.524 66.8662 55.1517C65.93 55.3114 64.9942 55.4492 64.0584 55.5866C64.1043 52.6537 64.1501 49.7151 64.196 46.7821C64.2419 43.8463 64.2882 40.9077 64.3336 37.9719ZM56.9362 50.6033C57.6393 50.5697 58.3434 50.528 59.0466 50.483C58.8839 49.3342 58.7203 48.1825 58.5624 47.0337C58.4049 45.882 58.247 44.736 58.089 43.5839C57.8951 44.7554 57.6956 45.9237 57.5069 47.0953C57.3187 48.2635 57.1244 49.4322 56.9362 50.6033ZM56.8175 38.4987C57.7845 38.4684 59.3998 38.0605 60.2088 41.2256C60.6959 44.1386 60.6992 44.1585 61.1872 47.055C61.6742 49.9406 62.1627 52.8294 62.6559 55.7126C61.7045 55.814 60.7526 55.913 59.8008 56.0116C59.6476 54.9073 59.4948 53.7997 59.3473 52.6892C58.429 52.748 57.5112 52.8034 56.5934 52.8531C56.3777 53.9911 56.1673 55.129 55.9574 56.2674C55.04 56.2953 54.1227 56.3067 53.2049 56.3181C53.8063 53.3572 54.4078 50.3911 55.0083 47.4245C55.6098 44.456 56.2108 41.4757 56.8175 38.4987ZM52.3376 56.3223C50.1634 56.2769 48.4252 56.2025 46.2586 56.0253C46.3044 53.0729 46.3512 50.1154 46.3971 47.163C46.4434 44.2078 46.4893 41.2531 46.5357 38.295C47.4681 38.3746 49.0872 38.1401 49.2953 40.939C49.2551 43.5199 49.2536 43.6241 49.213 46.2032C49.1733 48.7813 49.1326 51.3599 49.0924 53.938C50.3275 53.9835 51.5678 54.0261 52.8091 54.0384L52.3376 56.3223ZM39.5733 47.4634C40.214 47.5799 40.7715 47.398 41.2349 46.9067C41.6983 46.4164 41.9423 45.3884 41.948 43.8212C41.9537 42.202 41.7253 41.1299 41.2567 40.5889C40.7923 40.0521 40.2698 39.7693 39.6939 39.739C39.6735 41.028 39.6537 42.3171 39.6333 43.6009C39.6135 44.8876 39.5931 46.1767 39.5733 47.4634ZM39.5411 49.5057C39.5265 50.4323 39.5118 51.3608 39.4976 52.2875C39.483 53.2141 39.4688 54.1374 39.4541 55.0641C38.5127 54.8741 37.5764 54.6875 36.6401 54.5037C36.6855 51.5953 36.7309 48.6842 36.7768 45.7759C36.8222 42.8676 36.8676 39.9536 36.913 37.0424C37.7235 37.1756 38.5335 37.3125 39.3454 37.438C41.0042 37.6943 42.3565 38.2211 43.3949 39.0857C43.9122 39.5163 44.3014 40.1464 44.552 40.9636C44.8031 41.7836 44.9237 42.8088 44.9213 44.0349C44.919 45.1842 44.7946 46.1501 44.5407 46.9271C44.2872 47.7045 43.8928 48.2839 43.3718 48.6671C42.3263 49.4351 41.0481 49.7307 39.5411 49.5057Z" fill="#1A1C00"/>
<path fill-rule="evenodd" clip-rule="evenodd" d="M1.18408 19.6997C1.9695 19.667 3.22683 17.8175 3.7484 17.1732C4.52719 16.211 5.31923 15.3284 6.09283 14.4297C10.6649 9.12193 12.6031 5.79909 19.1844 1.80212L21.6939 0.46948C22.693 0.0236872 22.4306 0.255821 22.5124 0C20.6905 0.00710615 16.6026 2.111 15.2195 2.87515C12.9446 4.13246 11.046 5.60391 9.1352 7.13031C5.90274 9.71316 1.36566 15.6724 1.18408 19.6997Z" fill="#3D606F"/>
<path fill-rule="evenodd" clip-rule="evenodd" d="M1.18408 19.6997C1.9695 19.667 3.22683 17.8175 3.7484 17.1732C4.52719 16.211 5.31923 15.3284 6.09283 14.4297C10.6649 9.12193 12.6031 5.79909 19.1844 1.80212L21.6939 0.46948C22.693 0.0236872 22.4306 0.255821 22.5124 0C20.6905 0.00710615 16.6026 2.111 15.2195 2.87515C12.9446 4.13246 11.046 5.60391 9.1352 7.13031C5.90274 9.71316 1.36566 15.6724 1.18408 19.6997Z" fill="#1A1C00"/>
<path fill-rule="evenodd" clip-rule="evenodd" d="M54.7384 78.369L54.6821 78.9981C55.5546 79.063 59.466 77.648 60.4524 77.1681C64.5975 75.1518 68.813 72.1994 70.9371 67.5321C71.5287 66.2322 71.9954 64.8308 72.28 63.465C72.35 63.1291 72.3874 63.1367 72.132 62.9894C71.8942 63.2305 71.4899 64.0785 71.2832 64.449C70.442 65.9531 69.5881 67.1626 68.5199 68.5099C65.7352 72.0246 62.6786 75.0376 58.6215 76.9023C57.638 77.3542 55.6983 78.2169 54.7384 78.369Z" fill="#3D606F"/>
<path fill-rule="evenodd" clip-rule="evenodd" d="M54.7384 78.369L54.6821 78.9981C55.5546 79.063 59.466 77.648 60.4524 77.1681C64.5975 75.1518 68.813 72.1994 70.9371 67.5321C71.5287 66.2322 71.9954 64.8308 72.28 63.465C72.35 63.1291 72.3874 63.1367 72.132 62.9894C71.8942 63.2305 71.4899 64.0785 71.2832 64.449C70.442 65.9531 69.5881 67.1626 68.5199 68.5099C65.7352 72.0246 62.6786 75.0376 58.6215 76.9023C57.638 77.3542 55.6983 78.2169 54.7384 78.369Z" fill="#1A1C00"/>
<path fill-rule="evenodd" clip-rule="evenodd" d="M67.623 16.8941C68.3034 17.292 68.2779 18.3831 67.5662 19.3315C66.8541 20.2795 65.7259 20.7257 65.0454 20.3278C64.3654 19.9298 64.391 18.8388 65.1031 17.8909C65.8148 16.9424 66.943 16.4966 67.623 16.8941Z" fill="#3D606F"/>
<path fill-rule="evenodd" clip-rule="evenodd" d="M67.623 16.8941C68.3034 17.292 68.2779 18.3831 67.5662 19.3315C66.8541 20.2795 65.7259 20.7257 65.0454 20.3278C64.3654 19.9298 64.391 18.8388 65.1031 17.8909C65.8148 16.9424 66.943 16.4966 67.623 16.8941Z" fill="#1A1C00"/>
<g opacity="0.75">
<g opacity="0.75">
<g opacity="0.75">
<path fill-rule="evenodd" clip-rule="evenodd" d="M32.9114 6.65845C36.6877 6.95312 40.9519 7.60452 41.4787 10.1703C41.5222 10.3797 41.647 10.5341 41.8371 10.6436C42.2948 10.5995 42.7932 10.5214 43.3048 10.4242C44.313 10.2328 45.3703 9.95949 46.3207 9.71409C47.4485 9.42227 48.4349 9.69514 49.1139 9.76668C49.2364 9.76241 49.3565 9.76336 49.4733 9.76715C49.5466 9.74347 49.6274 9.69325 49.7102 9.62266C49.8904 9.46964 50.0525 9.23798 50.175 8.958C50.3036 8.66238 50.3812 8.32129 50.3812 7.9674C50.3812 7.50077 50.2431 7.01423 49.9064 6.58786C48.6231 6.11886 47.2986 5.71949 45.9363 5.39545C44.644 5.08799 43.3186 4.84828 41.9638 4.68294C39.2813 4.49297 36.646 4.60193 34.0936 4.98045C32.144 5.26943 30.2454 5.71428 28.4136 6.30267C29.756 6.38936 31.351 6.47274 32.9114 6.65845Z" fill="#3D606F"/>
<path fill-rule="evenodd" clip-rule="evenodd" d="M32.9114 6.65845C36.6877 6.95312 40.9519 7.60452 41.4787 10.1703C41.5222 10.3797 41.647 10.5341 41.8371 10.6436C42.2948 10.5995 42.7932 10.5214 43.3048 10.4242C44.313 10.2328 45.3703 9.95949 46.3207 9.71409C47.4485 9.42227 48.4349 9.69514 49.1139 9.76668C49.2364 9.76241 49.3565 9.76336 49.4733 9.76715C49.5466 9.74347 49.6274 9.69325 49.7102 9.62266C49.8904 9.46964 50.0525 9.23798 50.175 8.958C50.3036 8.66238 50.3812 8.32129 50.3812 7.9674C50.3812 7.50077 50.2431 7.01423 49.9064 6.58786C48.6231 6.11886 47.2986 5.71949 45.9363 5.39545C44.644 5.08799 43.3186 4.84828 41.9638 4.68294C39.2813 4.49297 36.646 4.60193 34.0936 4.98045C32.144 5.26943 30.2454 5.71428 28.4136 6.30267C29.756 6.38936 31.351 6.47274 32.9114 6.65845Z" fill="#1A1C00"/>
</g>
</g>
</g>
<g opacity="0.75">
<g opacity="0.75">
<g opacity="0.75">
<path fill-rule="evenodd" clip-rule="evenodd" d="M43.4187 68.8206C37.9917 67.4463 32.3022 66.9124 26.8828 69.4336C27.6091 69.7117 28.3463 69.9666 29.0934 70.1978C30.8624 70.6213 32.6961 70.916 34.5843 71.0709C37.133 71.2789 39.633 71.2197 42.0545 70.9169C43.7402 70.7056 45.3919 70.3783 46.9982 69.9415C45.8265 69.5573 44.6311 69.1755 43.4187 68.8206Z" fill="#3D606F"/>
<path fill-rule="evenodd" clip-rule="evenodd" d="M43.4187 68.8206C37.9917 67.4463 32.3022 66.9124 26.8828 69.4336C27.6091 69.7117 28.3463 69.9666 29.0934 70.1978C30.8624 70.6213 32.6961 70.916 34.5843 71.0709C37.133 71.2789 39.633 71.2197 42.0545 70.9169C43.7402 70.7056 45.3919 70.3783 46.9982 69.9415C45.8265 69.5573 44.6311 69.1755 43.4187 68.8206Z" fill="#1A1C00"/>
</g>
</g>
</g>
<g opacity="0.75">
<g opacity="0.75">
<g opacity="0.75">
<path fill-rule="evenodd" clip-rule="evenodd" d="M8.01476 20.1592C5.86561 23.4503 4.30092 27.3194 3.48193 31.1463C3.22044 32.3927 3.0294 33.6661 2.9145 34.9637C2.80953 36.1495 2.76886 37.3097 2.79014 38.4415C2.80953 39.4941 2.88329 40.552 3.00907 41.6108C3.13674 41.6999 3.31359 41.7994 3.49281 41.9007C3.93635 42.1504 4.39266 42.4072 4.69812 42.8004C4.82485 42.9629 4.95347 43.1206 5.08303 43.2746C5.25231 43.4016 5.40788 43.5423 5.53603 43.7081C5.96113 44.2543 6.40704 44.7451 6.84159 45.2222C8.15992 46.6723 9.38415 48.5677 9.45792 50.4637C9.47163 50.8128 9.50331 51.2079 9.55486 51.6366C9.72272 53.0422 10.0977 54.6482 10.7389 55.8733C10.8349 56.0571 10.937 56.2315 11.0444 56.3944C11.3271 56.5939 11.6354 56.7171 11.9721 56.7403C12.6677 55.6587 12.9226 53.3862 13.1396 51.4495C13.2219 50.7138 13.2999 49.4745 13.4011 48.8695C13.4678 48.473 13.5439 47.9599 13.6252 47.408C14.1231 44.0335 14.8381 39.1952 17.3443 37.2614C17.9647 36.7564 18.6891 36.4314 19.5383 36.3485C20.3474 36.2689 21.2501 36.4157 22.2596 36.8459C22.8956 37.1174 23.4914 37.1434 24.0371 37.015C24.6168 36.8786 25.1649 36.5669 25.6623 36.1836C26.0231 35.8942 26.3565 35.5649 26.6563 35.2361C26.9622 34.9002 27.2346 34.561 27.4634 34.2631C30.0538 30.8943 27.7684 27.1001 25.1384 24.1377C24.8778 23.8649 24.6187 23.6019 24.3648 23.349C23.8645 22.8501 23.429 22.3806 23.0398 21.9377C22.5306 21.3919 22.1192 20.8827 21.7731 20.408C19.5402 17.584 18.6791 16.1012 11.8383 15.0618C10.4892 16.5645 9.16569 18.3401 8.01476 20.1592Z" fill="#3D606F"/>
<path fill-rule="evenodd" clip-rule="evenodd" d="M8.01476 20.1592C5.86561 23.4503 4.30092 27.3194 3.48193 31.1463C3.22044 32.3927 3.0294 33.6661 2.9145 34.9637C2.80953 36.1495 2.76886 37.3097 2.79014 38.4415C2.80953 39.4941 2.88329 40.552 3.00907 41.6108C3.13674 41.6999 3.31359 41.7994 3.49281 41.9007C3.93635 42.1504 4.39266 42.4072 4.69812 42.8004C4.82485 42.9629 4.95347 43.1206 5.08303 43.2746C5.25231 43.4016 5.40788 43.5423 5.53603 43.7081C5.96113 44.2543 6.40704 44.7451 6.84159 45.2222C8.15992 46.6723 9.38415 48.5677 9.45792 50.4637C9.47163 50.8128 9.50331 51.2079 9.55486 51.6366C9.72272 53.0422 10.0977 54.6482 10.7389 55.8733C10.8349 56.0571 10.937 56.2315 11.0444 56.3944C11.3271 56.5939 11.6354 56.7171 11.9721 56.7403C12.6677 55.6587 12.9226 53.3862 13.1396 51.4495C13.2219 50.7138 13.2999 49.4745 13.4011 48.8695C13.4678 48.473 13.5439 47.9599 13.6252 47.408C14.1231 44.0335 14.8381 39.1952 17.3443 37.2614C17.9647 36.7564 18.6891 36.4314 19.5383 36.3485C20.3474 36.2689 21.2501 36.4157 22.2596 36.8459C22.8956 37.1174 23.4914 37.1434 24.0371 37.015C24.6168 36.8786 25.1649 36.5669 25.6623 36.1836C26.0231 35.8942 26.3565 35.5649 26.6563 35.2361C26.9622 34.9002 27.2346 34.561 27.4634 34.2631C30.0538 30.8943 27.7684 27.1001 25.1384 24.1377C24.8778 23.8649 24.6187 23.6019 24.3648 23.349C23.8645 22.8501 23.429 22.3806 23.0398 21.9377C22.5306 21.3919 22.1192 20.8827 21.7731 20.408C19.5402 17.584 18.6791 16.1012 11.8383 15.0618C10.4892 16.5645 9.16569 18.3401 8.01476 20.1592Z" fill="#1A1C00"/>
</g>
</g>
</g>
<path d="M12.6598 14.1849C10.0728 16.8288 7.46832 20.642 5.87809 24.0136C4.28929 27.3833 3.26034 31.0672 2.91468 34.9651C2.80924 36.1509 2.76904 37.3111 2.79032 38.4429C2.80971 39.496 2.88348 40.5534 3.00926 41.6122C3.13693 41.7013 3.3133 41.8003 3.49252 41.9017C4.70493 42.5843 5.09882 43.3205 6.0034 44.3159C7.3222 45.766 8.54643 47.6614 8.6202 49.5569C8.63391 49.906 8.6656 50.3011 8.71666 50.7304C8.885 52.1355 9.25998 53.741 9.90117 54.9661C10.419 55.9576 11.1041 56.6815 11.9718 56.7417C12.6674 55.6597 12.9227 53.3871 13.1398 51.4509C13.2221 50.7152 13.2996 49.4759 13.4013 48.8704C13.4679 48.4739 13.5436 47.9613 13.6254 47.4094C14.1233 44.0345 14.8378 39.1961 17.3449 37.2637L17.344 37.2623C17.9644 36.7573 18.6893 36.4323 19.538 36.3494C20.3471 36.2703 21.2503 36.4172 22.2598 36.8473C22.8958 37.1188 23.4911 37.1448 24.0373 37.0164C24.6165 36.88 25.1651 36.5683 25.6616 36.1841L25.6625 36.185C26.0228 35.8956 26.3567 35.5663 26.656 35.2375C26.9624 34.9012 27.2343 34.5624 27.4636 34.2645C30.5812 30.2092 26.6352 25.5381 23.5266 22.4427C18.6789 17.6105 21.5614 15.5374 12.6598 14.1849ZM46.9984 69.9416C39.9528 67.6326 32.0603 65.3894 24.6695 68.8273C25.9859 69.3319 27.3388 69.7601 28.7224 70.1069C30.6053 70.5792 32.5639 70.9052 34.5844 71.071C37.1331 71.279 39.6331 71.2202 42.0546 70.917C43.7408 70.7062 45.3921 70.3784 46.9984 69.9416ZM48.9205 68.9306C49.2232 69.0306 49.5244 69.1305 49.8232 69.2291L50.3032 69.3873C54.6388 67.7657 58.6785 65.6192 62.0476 62.5394C62.2575 62.3086 62.3682 62.2745 62.6557 62.2736L63.4222 62.2542L63.6203 62.2494C63.8572 62.2442 63.9362 62.2508 63.7957 62.3944C59.8341 66.2905 55.9453 69.6379 50.6243 71.7323C45.9325 73.579 40.706 74.2598 34.3513 73.7396C29.287 73.3251 24.5423 71.9612 20.2913 69.8464C15.8753 67.6501 11.9926 64.6432 8.83913 61.0485V61.0475C5.68517 57.4518 3.25798 53.2668 1.7524 48.7136C0.302612 44.3287 -0.294136 39.605 0.137585 34.741C0.568359 29.8743 1.98788 25.315 4.18857 21.2304C6.47437 16.987 9.60327 13.2563 13.3441 10.2263C17.0848 7.19572 21.4408 4.86348 26.1803 3.41572C30.7434 2.02244 35.6592 1.44921 40.7212 1.86327C45.4904 2.2541 49.6516 3.46025 53.3857 5.34291C57.5663 7.45059 60.3259 9.9548 63.5494 13.2194C63.6203 13.3136 63.5773 13.3577 63.4699 13.3738L62.1228 13.3297C62.0637 13.3345 61.9814 13.299 61.8301 13.1407C58.9073 10.4854 55.6162 8.45303 51.9431 6.87263L51.823 6.82146C51.9454 7.20235 52.0012 7.5894 52.0012 7.96745C52.0012 8.53073 51.8769 9.07648 51.6683 9.55401C51.4536 10.0467 51.143 10.475 50.7798 10.7843C50.3699 11.1344 49.888 11.3396 49.3825 11.3396C48.9153 11.3396 47.911 11.5992 46.7388 11.9024C45.76 12.1553 44.6724 12.4363 43.6151 12.6367C40.924 13.1474 39.1054 12.4794 38.6652 10.3381C38.2174 8.15837 33.5659 7.69457 29.6856 7.31747C27.1397 7.79785 24.1565 7.49181 23.3866 6.77504L23.3795 6.7684C20.2724 8.08067 17.3884 9.8141 14.8137 11.9005H14.8123C14.1843 12.4088 13.5753 12.9384 12.9852 13.4885C19.6657 14.5999 20.9661 16.7885 22.3435 19.1085C22.8178 19.9077 23.3029 20.7244 24.0652 21.4838L24.1196 21.5378C27.614 25.0179 32.692 31.071 28.7607 36.1841C28.5129 36.5062 28.2159 36.8757 27.8708 37.2543C27.5223 37.6375 27.1255 38.026 26.6834 38.3803L26.674 38.3889C26.0124 38.901 25.2573 39.3217 24.417 39.5197C23.5422 39.7258 22.5993 39.6879 21.6077 39.2653C20.8639 38.9484 20.2322 38.837 19.696 38.8891C19.1995 38.9375 18.7668 39.135 18.388 39.4434L18.3658 39.4586C16.3519 40.9916 15.688 44.4907 15.226 47.6221C15.149 48.1447 15.0771 48.6293 14.9958 49.1135C14.9054 49.6516 14.8288 50.3362 14.747 51.0662C14.486 53.3918 14.1758 56.1566 13.0003 57.4627L12.7932 57.6934L12.4816 57.7275C12.404 57.7361 12.3128 57.7422 12.2087 57.746C10.497 57.8076 9.31909 56.3788 8.49395 54.8017C7.75581 53.3909 7.29478 51.9067 7.10942 50.3575C7.05693 49.915 7.02288 49.4773 7.00681 49.0628C6.95479 47.7192 5.91166 46.5723 4.78862 45.3373C4.12568 44.6082 3.58709 43.7531 2.73689 43.2736C3.01351 44.9052 3.41213 46.5017 3.92471 48.0523C5.33903 52.3288 7.61821 56.2599 10.5802 59.6367L10.5807 59.6363C13.5436 63.0131 17.1898 65.8376 21.3368 67.8998C21.6356 68.0485 21.9373 68.193 22.2409 68.3337L22.3951 68.2451C31.3307 63.1093 40.751 66.227 48.9205 68.9306ZM39.5929 9.98891C39.7764 10.8833 41.4546 10.7753 43.3053 10.4243C44.3135 10.2329 45.3708 9.95954 46.3208 9.71414C47.6074 9.38157 48.7101 9.78331 49.3825 9.78331C49.4776 9.78331 49.5925 9.72409 49.7102 9.62318C49.8904 9.46969 50.053 9.2385 50.175 8.95804C50.3037 8.66243 50.3812 8.32133 50.3812 7.96745C50.3812 7.50081 50.2431 7.01475 49.9069 6.58791C48.6231 6.11937 47.2986 5.71954 45.9363 5.39549C44.5357 5.06245 43.0963 4.809 41.6224 4.64272H41.6163L41.6135 4.64224V4.64035L41.0612 4.58587C40.872 4.56739 40.6805 4.54892 40.4866 4.53044V4.53234C37.6632 4.30115 34.8899 4.40158 32.2078 4.79905C30.2398 5.09088 28.3242 5.54141 26.4768 6.1369C29.9915 6.58222 38.8189 6.2217 39.5929 9.98891Z" fill="#3D606F"/>
<path d="M12.6598 14.1849C10.0728 16.8288 7.46832 20.642 5.87809 24.0136C4.28929 27.3833 3.26034 31.0672 2.91468 34.9651C2.80924 36.1509 2.76904 37.3111 2.79032 38.4429C2.80971 39.496 2.88348 40.5534 3.00926 41.6122C3.13693 41.7013 3.3133 41.8003 3.49252 41.9017C4.70493 42.5843 5.09882 43.3205 6.0034 44.3159C7.3222 45.766 8.54643 47.6614 8.6202 49.5569C8.63391 49.906 8.6656 50.3011 8.71666 50.7304C8.885 52.1355 9.25998 53.741 9.90117 54.9661C10.419 55.9576 11.1041 56.6815 11.9718 56.7417C12.6674 55.6597 12.9227 53.3871 13.1398 51.4509C13.2221 50.7152 13.2996 49.4759 13.4013 48.8704C13.4679 48.4739 13.5436 47.9613 13.6254 47.4094C14.1233 44.0345 14.8378 39.1961 17.3449 37.2637L17.344 37.2623C17.9644 36.7573 18.6893 36.4323 19.538 36.3494C20.3471 36.2703 21.2503 36.4172 22.2598 36.8473C22.8958 37.1188 23.4911 37.1448 24.0373 37.0164C24.6165 36.88 25.1651 36.5683 25.6616 36.1841L25.6625 36.185C26.0228 35.8956 26.3567 35.5663 26.656 35.2375C26.9624 34.9012 27.2343 34.5624 27.4636 34.2645C30.5812 30.2092 26.6352 25.5381 23.5266 22.4427C18.6789 17.6105 21.5614 15.5374 12.6598 14.1849ZM46.9984 69.9416C39.9528 67.6326 32.0603 65.3894 24.6695 68.8273C25.9859 69.3319 27.3388 69.7601 28.7224 70.1069C30.6053 70.5792 32.5639 70.9052 34.5844 71.071C37.1331 71.279 39.6331 71.2202 42.0546 70.917C43.7408 70.7062 45.3921 70.3784 46.9984 69.9416ZM48.9205 68.9306C49.2232 69.0306 49.5244 69.1305 49.8232 69.2291L50.3032 69.3873C54.6388 67.7657 58.6785 65.6192 62.0476 62.5394C62.2575 62.3086 62.3682 62.2745 62.6557 62.2736L63.4222 62.2542L63.6203 62.2494C63.8572 62.2442 63.9362 62.2508 63.7957 62.3944C59.8341 66.2905 55.9453 69.6379 50.6243 71.7323C45.9325 73.579 40.706 74.2598 34.3513 73.7396C29.287 73.3251 24.5423 71.9612 20.2913 69.8464C15.8753 67.6501 11.9926 64.6432 8.83913 61.0485V61.0475C5.68517 57.4518 3.25798 53.2668 1.7524 48.7136C0.302612 44.3287 -0.294136 39.605 0.137585 34.741C0.568359 29.8743 1.98788 25.315 4.18857 21.2304C6.47437 16.987 9.60327 13.2563 13.3441 10.2263C17.0848 7.19572 21.4408 4.86348 26.1803 3.41572C30.7434 2.02244 35.6592 1.44921 40.7212 1.86327C45.4904 2.2541 49.6516 3.46025 53.3857 5.34291C57.5663 7.45059 60.3259 9.9548 63.5494 13.2194C63.6203 13.3136 63.5773 13.3577 63.4699 13.3738L62.1228 13.3297C62.0637 13.3345 61.9814 13.299 61.8301 13.1407C58.9073 10.4854 55.6162 8.45303 51.9431 6.87263L51.823 6.82146C51.9454 7.20235 52.0012 7.5894 52.0012 7.96745C52.0012 8.53073 51.8769 9.07648 51.6683 9.55401C51.4536 10.0467 51.143 10.475 50.7798 10.7843C50.3699 11.1344 49.888 11.3396 49.3825 11.3396C48.9153 11.3396 47.911 11.5992 46.7388 11.9024C45.76 12.1553 44.6724 12.4363 43.6151 12.6367C40.924 13.1474 39.1054 12.4794 38.6652 10.3381C38.2174 8.15837 33.5659 7.69457 29.6856 7.31747C27.1397 7.79785 24.1565 7.49181 23.3866 6.77504L23.3795 6.7684C20.2724 8.08067 17.3884 9.8141 14.8137 11.9005H14.8123C14.1843 12.4088 13.5753 12.9384 12.9852 13.4885C19.6657 14.5999 20.9661 16.7885 22.3435 19.1085C22.8178 19.9077 23.3029 20.7244 24.0652 21.4838L24.1196 21.5378C27.614 25.0179 32.692 31.071 28.7607 36.1841C28.5129 36.5062 28.2159 36.8757 27.8708 37.2543C27.5223 37.6375 27.1255 38.026 26.6834 38.3803L26.674 38.3889C26.0124 38.901 25.2573 39.3217 24.417 39.5197C23.5422 39.7258 22.5993 39.6879 21.6077 39.2653C20.8639 38.9484 20.2322 38.837 19.696 38.8891C19.1995 38.9375 18.7668 39.135 18.388 39.4434L18.3658 39.4586C16.3519 40.9916 15.688 44.4907 15.226 47.6221C15.149 48.1447 15.0771 48.6293 14.9958 49.1135C14.9054 49.6516 14.8288 50.3362 14.747 51.0662C14.486 53.3918 14.1758 56.1566 13.0003 57.4627L12.7932 57.6934L12.4816 57.7275C12.404 57.7361 12.3128 57.7422 12.2087 57.746C10.497 57.8076 9.31909 56.3788 8.49395 54.8017C7.75581 53.3909 7.29478 51.9067 7.10942 50.3575C7.05693 49.915 7.02288 49.4773 7.00681 49.0628C6.95479 47.7192 5.91166 46.5723 4.78862 45.3373C4.12568 44.6082 3.58709 43.7531 2.73689 43.2736C3.01351 44.9052 3.41213 46.5017 3.92471 48.0523C5.33903 52.3288 7.61821 56.2599 10.5802 59.6367L10.5807 59.6363C13.5436 63.0131 17.1898 65.8376 21.3368 67.8998C21.6356 68.0485 21.9373 68.193 22.2409 68.3337L22.3951 68.2451C31.3307 63.1093 40.751 66.227 48.9205 68.9306ZM39.5929 9.98891C39.7764 10.8833 41.4546 10.7753 43.3053 10.4243C44.3135 10.2329 45.3708 9.95954 46.3208 9.71414C47.6074 9.38157 48.7101 9.78331 49.3825 9.78331C49.4776 9.78331 49.5925 9.72409 49.7102 9.62318C49.8904 9.46969 50.053 9.2385 50.175 8.95804C50.3037 8.66243 50.3812 8.32133 50.3812 7.96745C50.3812 7.50081 50.2431 7.01475 49.9069 6.58791C48.6231 6.11937 47.2986 5.71954 45.9363 5.39549C44.5357 5.06245 43.0963 4.809 41.6224 4.64272H41.6163L41.6135 4.64224V4.64035L41.0612 4.58587C40.872 4.56739 40.6805 4.54892 40.4866 4.53044V4.53234C37.6632 4.30115 34.8899 4.40158 32.2078 4.79905C30.2398 5.09088 28.3242 5.54141 26.4768 6.1369C29.9915 6.58222 38.8189 6.2217 39.5929 9.98891Z" fill="#1A1C00"/>
</svg>
