<svg width="185" height="185" viewBox="0 0 185 185" fill="none" xmlns="http://www.w3.org/2000/svg">
<path d="M63.2747 4.72536C63.366 4.69118 63.4568 4.69475 63.5481 4.73608C63.6389 4.77791 63.7017 4.84424 63.7359 4.93556L66.7327 12.9631C66.7664 13.0544 66.7628 13.1452 66.7215 13.2366C66.6802 13.3279 66.6138 13.3901 66.5225 13.4238L66.0128 13.6141C65.9215 13.6478 65.8307 13.6447 65.7394 13.6029C65.6486 13.5616 65.5858 13.4952 65.5521 13.4039L62.8471 6.15903L58.4728 7.79219L61.1778 15.0371C61.212 15.1284 61.2084 15.2192 61.1666 15.31C61.1247 15.4014 61.0589 15.4641 60.9676 15.4978L60.4579 15.6881C60.3666 15.7218 60.2758 15.7187 60.1845 15.6769C60.0931 15.6355 60.0309 15.5692 59.9967 15.4779L56.9993 7.44984C56.9657 7.35852 56.9692 7.26821 57.0106 7.17689C57.0519 7.08556 57.1182 7.02331 57.2095 6.98913L63.2747 4.72536Z" fill="#74BE0F"/>
<path d="M70.0919 2.79649C70.5112 2.68884 70.9214 2.64037 71.3214 2.65211C71.7214 2.66384 72.0913 2.74445 72.4316 2.89445C72.7714 3.04496 73.0688 3.26945 73.3239 3.56894C73.579 3.86894 73.7667 4.25465 73.8877 4.72557C74.0086 5.197 74.03 5.6271 73.9519 6.01689C73.8739 6.40669 73.7234 6.75312 73.5004 7.0572C73.2775 7.36128 72.9933 7.61689 72.6494 7.82352C72.3056 8.03066 71.9234 8.18832 71.504 8.29597L69.1398 8.90311L69.9485 12.0511C69.9725 12.1454 69.9592 12.2352 69.9082 12.3215C69.8572 12.4077 69.7847 12.4623 69.6903 12.4868L69.1638 12.6225C69.0694 12.6465 68.9796 12.6332 68.8934 12.5822C68.8072 12.5312 68.7521 12.4587 68.7281 12.3643L66.596 4.06435C66.5721 3.96996 66.5853 3.88016 66.6363 3.79394C66.6874 3.70772 66.7598 3.65261 66.8537 3.62863L70.0919 2.79649ZM68.8429 7.74699L71.1428 7.15669C71.7591 6.99801 72.203 6.7424 72.4729 6.39036C72.7428 6.03832 72.8076 5.58781 72.6668 5.03935C72.526 4.49139 72.2545 4.13629 71.8525 3.97506C71.45 3.81384 70.9408 3.8118 70.324 3.96996L68.0246 4.56077L68.8429 7.74699Z" fill="#74BE0F"/>
<path d="M75.6352 5.03942C75.5704 4.54861 75.5862 4.07412 75.6832 3.61749C75.7796 3.16035 75.9577 2.74912 76.2153 2.38382C76.4729 2.01851 76.8112 1.70882 77.229 1.45372C77.6469 1.19862 78.1443 1.0277 78.7214 0.940965C79.2984 0.85423 79.8244 0.871577 80.2984 0.992495C80.7728 1.11392 81.1866 1.31086 81.5407 1.58382C81.8947 1.85729 82.185 2.1981 82.4121 2.60678C82.6386 3.01545 82.7932 3.46443 82.8758 3.95269C83.0187 4.72718 83.1355 5.50524 83.2263 6.28738C83.2824 6.78023 83.262 7.25472 83.1651 7.71186C83.0682 8.16901 82.8911 8.58278 82.6335 8.95217C82.3758 9.32206 82.0401 9.63125 81.6264 9.88125C81.2121 10.1312 80.7167 10.2996 80.1392 10.3863C79.5616 10.4731 79.0387 10.4578 78.5693 10.3399C78.1005 10.2231 77.6882 10.0256 77.3336 9.74757C76.9791 9.47053 76.6882 9.12717 76.4617 8.71849C76.2347 8.30982 76.076 7.86186 75.9847 7.37462C75.8429 6.60064 75.726 5.82207 75.6352 5.03942ZM81.6402 4.20473C81.5606 3.79657 81.4391 3.4481 81.2754 3.15933C81.1116 2.87157 80.9096 2.64198 80.6693 2.47259C80.429 2.3027 80.1591 2.18892 79.8601 2.13127C79.5606 2.07361 79.2407 2.07004 78.8994 2.12106C78.5586 2.17208 78.253 2.26953 77.9841 2.41239C77.7148 2.55576 77.4908 2.74351 77.3107 2.97616C77.1311 3.20882 77.003 3.48739 76.9265 3.81188C76.85 4.13687 76.8382 4.50473 76.8913 4.91697C76.9326 5.3134 76.9791 5.68177 77.0306 6.02309C77.0816 6.36442 77.1454 6.73023 77.2219 7.12105C77.2923 7.53074 77.4117 7.87921 77.5806 8.16697C77.7489 8.45472 77.953 8.6838 78.1933 8.85319C78.4336 9.02308 78.7035 9.13686 79.0025 9.19451C79.3014 9.25217 79.6218 9.25574 79.9632 9.20472C80.3045 9.1537 80.6096 9.05625 80.8784 8.91339C81.1473 8.77002 81.3718 8.58227 81.5519 8.34962C81.7315 8.11697 81.8575 7.8389 81.9294 7.51493C82.0014 7.19095 82.0151 6.82258 81.9713 6.4083C81.9294 6.01238 81.8835 5.6435 81.832 5.30269C81.7804 4.96187 81.7167 4.59606 81.6402 4.20473Z" fill="#74BE0F"/>
<path d="M85.6396 0.616072C85.6355 0.519134 85.6666 0.433419 85.7345 0.35944C85.8018 0.285461 85.8839 0.246685 85.9814 0.242604L91.4414 0.00229823C91.5384 -0.00178339 91.6241 0.0303594 91.698 0.0977061C91.7715 0.165563 91.8108 0.247706 91.8149 0.344644L92.1547 8.07115L92.4592 8.05789C92.5562 8.0533 92.6419 8.08544 92.7159 8.1533C92.7893 8.22115 92.8286 8.3033 92.8327 8.40023L92.9179 10.3349C92.922 10.4319 92.8904 10.5171 92.823 10.5916C92.7552 10.6655 92.673 10.7043 92.5761 10.7084L92.0327 10.7324C91.9353 10.7365 91.8501 10.7048 91.7761 10.637C91.7021 10.5691 91.6634 10.487 91.6593 10.39L91.6108 9.29003L85.6605 9.55125L85.7089 10.6512C85.713 10.7482 85.6814 10.8334 85.614 10.9079C85.5462 10.9819 85.464 11.0206 85.3671 11.0247L84.8238 11.0487C84.7263 11.0528 84.6411 11.0206 84.5671 10.9533C84.4932 10.8854 84.4544 10.8033 84.4503 10.7064L84.3651 8.77166C84.361 8.67472 84.3921 8.58901 84.46 8.51503C84.5273 8.44105 84.6095 8.40177 84.7069 8.39819L84.9192 8.3885C85.1049 8.38034 85.2646 8.34921 85.3998 8.29411C85.5345 8.24003 85.6411 8.15075 85.7197 8.0283C85.7982 7.90534 85.8533 7.74105 85.8839 7.53595C85.9151 7.33136 85.9232 7.07422 85.91 6.76452L85.6396 0.616072ZM87.1788 6.93544C87.1885 7.14718 87.1808 7.38646 87.1574 7.6533C87.1334 7.91962 87.063 8.13493 86.9467 8.29972L90.896 8.12626L90.593 1.23495L86.9354 1.39515L87.1788 6.93544Z" fill="#74BE0F"/>
<path d="M94.1858 0.477574C94.146 0.395942 94.1276 0.328085 94.1307 0.275534C94.1353 0.195942 94.1674 0.129616 94.2281 0.0750242C94.2889 0.0209427 94.3588 -0.00405719 94.4383 0.000534632L95.0077 0.0326774C95.1842 0.0428815 95.3082 0.0852283 95.3796 0.159718C95.4506 0.234718 95.5062 0.313289 95.546 0.394921L97.6719 5.1245L100.327 0.663288C100.375 0.586247 100.439 0.514819 100.518 0.447982C100.597 0.381656 100.725 0.353085 100.901 0.363289L101.471 0.395432C101.55 0.400023 101.617 0.432166 101.671 0.49288C101.726 0.553594 101.75 0.623492 101.746 0.703084C101.743 0.756145 101.717 0.82043 101.668 0.897981L98.1484 6.81225C97.9632 7.11225 97.7714 7.41837 97.5724 7.73011C97.3735 8.04235 97.1541 8.3199 96.9143 8.56378C96.675 8.80714 96.4118 9.00255 96.124 9.15C95.8368 9.29796 95.5164 9.36173 95.1633 9.34235L94.4746 9.30357C94.3776 9.29796 94.2955 9.25816 94.2292 9.18367C94.1623 9.10918 94.1322 9.02347 94.1373 8.92602L94.1644 8.44898C94.17 8.35204 94.2098 8.2699 94.2843 8.20357C94.3588 8.13674 94.4445 8.10664 94.5419 8.11174L95.1113 8.14388C95.2878 8.15408 95.4536 8.11174 95.6097 8.01888C95.7653 7.92602 95.9143 7.79643 96.0567 7.63215C96.1985 7.46735 96.3373 7.28215 96.473 7.07756C96.6087 6.87246 96.7444 6.65868 96.8811 6.43572L94.1858 0.477574Z" fill="#74BE0F"/>
<path d="M104.877 5.33543L108.71 10.2711C108.754 10.3313 108.783 10.3824 108.794 10.4247C108.805 10.4665 108.81 10.5002 108.805 10.5267C108.794 10.6053 108.755 10.6691 108.69 10.717C108.624 10.766 108.552 10.7839 108.474 10.7716L107.661 10.6497C107.538 10.6313 107.441 10.5926 107.37 10.5324C107.298 10.4727 107.247 10.4227 107.218 10.3824L104.038 6.28287L103.53 9.66756C103.515 9.76348 103.467 9.84154 103.387 9.90072C103.307 9.96041 103.218 9.98287 103.122 9.96858L102.584 9.88797C102.488 9.87368 102.41 9.82623 102.351 9.74562C102.291 9.66552 102.268 9.57725 102.283 9.48032L103.556 1.00636C103.57 0.91044 103.618 0.832379 103.698 0.772685C103.779 0.713502 103.867 0.691053 103.964 0.705339L104.502 0.785951C104.597 0.800236 104.675 0.847685 104.735 0.928297C104.795 1.0084 104.817 1.09717 104.803 1.19309L104.344 4.24972L108.329 1.56146C108.369 1.53187 108.432 1.4987 108.518 1.46299C108.604 1.42677 108.709 1.41758 108.831 1.43595L109.592 1.55023C109.67 1.56197 109.733 1.60074 109.782 1.66605C109.83 1.73187 109.849 1.8038 109.837 1.88238C109.833 1.90891 109.819 1.94003 109.796 1.97727C109.772 2.0135 109.73 2.05431 109.67 2.09921L104.877 5.33543Z" fill="#74BE0F"/>
<path d="M116.982 11.6475L117.381 11.75C117.474 11.774 117.547 11.8291 117.598 11.9153C117.649 12.0016 117.662 12.0919 117.638 12.1857L117.155 14.0612C117.13 14.1556 117.075 14.2281 116.989 14.2791C116.902 14.3301 116.812 14.3434 116.718 14.3189L116.192 14.1832C116.097 14.1587 116.025 14.1036 115.974 14.0174C115.923 13.9311 115.91 13.8408 115.934 13.747L116.209 12.6806L110.198 11.1317C110.103 11.1072 110.031 11.0521 109.98 10.9658C109.929 10.8796 109.916 10.7898 109.94 10.6954L112.079 2.39699C112.103 2.3026 112.158 2.23066 112.244 2.17964C112.331 2.12862 112.421 2.11535 112.515 2.13984L113.042 2.27556C113.136 2.30005 113.208 2.35515 113.259 2.44137C113.31 2.5276 113.323 2.6179 113.299 2.71178L111.369 10.2005L115.762 11.3332L117.692 3.84392C117.716 3.74953 117.771 3.67708 117.858 3.62606C117.944 3.57504 118.034 3.56178 118.128 3.58627L118.655 3.72249C118.749 3.74647 118.821 3.80157 118.872 3.8878C118.923 3.97402 118.936 4.06433 118.912 4.15821L116.982 11.6475Z" fill="#74BE0F"/>
<path d="M119.205 13.623C119.114 13.5883 119.048 13.5256 119.007 13.4342C118.966 13.3429 118.963 13.2521 118.997 13.1608L122.041 5.15059C122.076 5.05926 122.139 4.99345 122.23 4.95212C122.321 4.9113 122.412 4.90824 122.504 4.94243L123.012 5.13579C123.103 5.16998 123.169 5.23273 123.21 5.32457C123.251 5.4159 123.255 5.50671 123.22 5.59753L120.902 11.6985L127.236 7.16589C127.328 7.09701 127.429 7.03834 127.537 6.98936C127.645 6.94038 127.757 6.93783 127.873 6.98222L128.307 7.14701C128.398 7.1812 128.464 7.24395 128.505 7.33528C128.547 7.42711 128.55 7.51793 128.515 7.60875L125.471 15.6194C125.437 15.7103 125.374 15.7766 125.283 15.8174C125.191 15.8582 125.1 15.8618 125.009 15.8271L124.5 15.6342C124.409 15.5995 124.343 15.5368 124.302 15.4455C124.261 15.3541 124.258 15.2633 124.293 15.172L126.611 9.07099L120.277 13.6036C120.184 13.673 120.084 13.7317 119.976 13.7802C119.867 13.8291 119.755 13.8317 119.639 13.7878L119.205 13.623Z" fill="#74BE0F"/>
<path d="M136.746 11.2121C136.833 11.2565 136.892 11.3259 136.924 11.4208C136.955 11.5162 136.949 11.6065 136.905 11.6933L133.038 19.3412C132.995 19.4279 132.925 19.4866 132.83 19.5182C132.735 19.5499 132.644 19.5432 132.557 19.4994L132.072 19.2545C131.985 19.2101 131.926 19.1407 131.895 19.0458C131.863 18.9504 131.87 18.8601 131.914 18.7733L133.44 15.7545L131.404 14.7249L128.162 16.8759C128.102 16.9152 128.015 16.9555 127.9 16.9963C127.785 17.0371 127.649 17.0177 127.491 16.9381L126.981 16.681C126.911 16.6453 126.862 16.5881 126.837 16.5111C126.811 16.4341 126.817 16.3596 126.852 16.2887C126.872 16.2494 126.906 16.2116 126.954 16.1759L130.315 13.9662C129.898 13.557 129.625 13.0825 129.497 12.5417C129.369 12.0014 129.466 11.4116 129.79 10.7723C130.009 10.3382 130.273 10.006 130.583 9.77592C130.893 9.54632 131.227 9.39837 131.587 9.33255C131.948 9.26724 132.323 9.27388 132.714 9.35245C133.106 9.43102 133.495 9.56877 133.881 9.76418L136.746 11.2121ZM135.403 11.8708L133.402 10.8596C132.834 10.5723 132.341 10.4545 131.924 10.5065C131.506 10.5581 131.17 10.8361 130.915 11.3417C130.659 11.8473 130.63 12.2902 130.829 12.6728C131.027 13.0555 131.41 13.3902 131.978 13.6774L133.979 14.6887L135.403 11.8708Z" fill="#74BE0F"/>
<path d="M141.399 18.1255C141.157 18.4418 140.938 18.7418 140.74 19.0249C140.543 19.3081 140.338 19.6178 140.125 19.9545C139.727 20.5719 139.57 21.1872 139.655 21.801C139.739 22.4147 140.105 22.9469 140.751 23.3969C141.099 23.6397 141.423 23.8004 141.723 23.88C142.023 23.9596 142.299 23.9851 142.552 23.9555C142.804 23.9265 143.033 23.852 143.241 23.7321C143.448 23.6127 143.637 23.477 143.807 23.326C143.876 23.2561 143.955 23.2219 144.04 23.2224C144.126 23.2229 144.198 23.2433 144.256 23.2836L144.757 23.6326C144.822 23.678 144.862 23.7408 144.876 23.8209C144.89 23.901 144.874 23.9734 144.829 24.0387C144.655 24.2734 144.411 24.4918 144.098 24.6938C143.785 24.8959 143.419 25.0372 143.002 25.1183C142.585 25.1994 142.127 25.1907 141.63 25.0923C141.133 24.9938 140.612 24.755 140.068 24.376C139.596 24.0469 139.227 23.68 138.961 23.2734C138.694 22.8668 138.519 22.4402 138.437 21.9948C138.354 21.5489 138.365 21.0959 138.47 20.6357C138.575 20.1755 138.769 19.7265 139.053 19.2877C139.481 18.627 139.931 17.9806 140.403 17.35C140.711 16.9392 141.063 16.603 141.461 16.3413C141.859 16.0795 142.281 15.9102 142.728 15.8336C143.174 15.7571 143.635 15.7729 144.109 15.8821C144.583 15.9913 145.055 16.2102 145.527 16.5382C146.071 16.9173 146.475 17.3234 146.74 17.7556C147.005 18.1882 147.171 18.6142 147.24 19.0336C147.309 19.453 147.303 19.8454 147.222 20.2091C147.141 20.5729 147.02 20.8775 146.861 21.1219C146.815 21.1872 146.752 21.227 146.672 21.2408C146.592 21.255 146.52 21.2397 146.454 21.1938L145.954 20.8448C145.896 20.8045 145.851 20.7443 145.821 20.6642C145.791 20.5841 145.796 20.4989 145.838 20.4086C145.92 20.1969 145.982 19.9729 146.022 19.7372C146.063 19.5015 146.053 19.2601 145.993 19.0137C145.933 18.7673 145.813 18.5168 145.635 18.2627C145.456 18.0091 145.192 17.7612 144.844 17.5183C144.198 17.0683 143.572 16.9102 142.967 17.0438C142.363 17.1785 141.84 17.5387 141.399 18.1255Z" fill="#74BE0F"/>
<path d="M149.494 30.1643C149.568 30.2271 149.61 30.3087 149.617 30.4087C149.625 30.5082 149.597 30.5955 149.535 30.6694L149.225 31.0332C149.162 31.1077 149.08 31.1485 148.981 31.1562C148.881 31.1643 148.794 31.1363 148.72 31.0735L144.641 27.5975C144.567 27.5343 144.526 27.4531 144.518 27.3531C144.51 27.2536 144.537 27.1669 144.601 27.0924L150.159 20.5705C150.222 20.4965 150.304 20.4552 150.404 20.4475C150.503 20.4399 150.59 20.4674 150.664 20.5302L154.662 23.9378C154.736 24.0011 154.777 24.0822 154.785 24.1822C154.793 24.2817 154.765 24.3684 154.702 24.4429L154.393 24.8062C154.329 24.8807 154.248 24.9215 154.148 24.9292C154.048 24.9373 153.962 24.9098 153.888 24.8465L150.576 22.0246L148.761 24.1547L151.85 26.7878C151.924 26.8506 151.965 26.9322 151.973 27.0322C151.981 27.1322 151.953 27.2184 151.89 27.2929L151.581 27.6562C151.517 27.7307 151.436 27.7715 151.336 27.7792C151.236 27.7873 151.149 27.7598 151.075 27.6965L147.986 25.0639L146.102 27.2746L149.494 30.1643Z" fill="#74BE0F"/>
<path d="M159.369 28.5736C159.67 28.8843 159.915 29.217 160.103 29.57C160.292 29.9231 160.405 30.2843 160.443 30.6542C160.481 31.0241 160.433 31.3935 160.299 31.7634C160.165 32.1338 159.924 32.4879 159.575 32.8266C159.225 33.1649 158.862 33.397 158.485 33.5226C158.107 33.6481 157.732 33.6889 157.357 33.6455C156.983 33.6021 156.62 33.4828 156.27 33.2863C155.92 33.0904 155.594 32.8363 155.292 32.5256L153.593 30.7731L151.26 33.0353C151.19 33.1037 151.105 33.1363 151.005 33.1348C150.905 33.1328 150.821 33.0976 150.754 33.0277L150.375 32.6368C150.307 32.5669 150.274 32.4817 150.276 32.3823C150.277 32.2823 150.313 32.1986 150.383 32.1302L156.535 26.1654C156.605 26.0981 156.69 26.0649 156.791 26.0665C156.891 26.068 156.974 26.1037 157.042 26.1736L159.369 28.5736ZM154.451 29.9425L156.104 31.6476C156.547 32.1047 156.989 32.3629 157.429 32.4231C157.869 32.4833 158.292 32.3164 158.698 31.9226C159.105 31.5287 159.278 31.117 159.219 30.6874C159.16 30.2578 158.909 29.8149 158.466 29.3578L156.813 27.6532L154.451 29.9425Z" fill="#74BE0F"/>
<path d="M166.643 37.0751C166.704 37.1511 166.729 37.2383 166.718 37.3383C166.708 37.4378 166.664 37.5184 166.588 37.5791L166.216 37.8781C166.14 37.9388 166.052 37.9638 165.953 37.9531C165.853 37.9424 165.773 37.899 165.712 37.823L164.159 35.8883L158.129 40.7301C158.053 40.7914 157.965 40.8164 157.866 40.8051C157.767 40.7944 157.686 40.7511 157.625 40.675L157.285 40.2511C157.224 40.175 157.199 40.0878 157.21 39.9878C157.221 39.8883 157.264 39.8082 157.34 39.747L163.37 34.9052L161.817 32.971C161.757 32.8955 161.732 32.8077 161.742 32.7077C161.753 32.6082 161.797 32.5281 161.873 32.4669L162.245 32.1679C162.321 32.1072 162.408 32.0822 162.508 32.0934C162.608 32.1041 162.688 32.147 162.749 32.2235L166.643 37.0751Z" fill="#74BE0F"/>
<path d="M160.546 44.4645C160.493 44.3829 160.476 44.2931 160.497 44.1956C160.517 44.0976 160.568 44.0221 160.65 43.9691L167.824 39.2813C167.905 39.2283 167.995 39.2114 168.093 39.2324C168.19 39.2528 168.266 39.3038 168.319 39.3854L168.617 39.8405C168.67 39.9221 168.686 40.0119 168.666 40.1094C168.645 40.2074 168.594 40.2834 168.513 40.3359L163.049 43.9058L170.838 43.967C170.953 43.9655 171.069 43.9772 171.185 44.0012C171.301 44.0257 171.393 44.0895 171.461 44.1931L171.715 44.5818C171.768 44.6635 171.784 44.7533 171.764 44.8507C171.743 44.9487 171.693 45.0247 171.611 45.0772L164.437 49.765C164.356 49.818 164.266 49.8349 164.168 49.814C164.07 49.7936 163.995 49.7425 163.942 49.6609L163.644 49.2058C163.591 49.1242 163.574 49.0344 163.595 48.9369C163.616 48.839 163.667 48.7635 163.748 48.7104L169.212 45.1405L161.424 45.0793C161.308 45.0808 161.192 45.0691 161.076 45.0451C160.959 45.0206 160.867 44.9568 160.8 44.8533L160.546 44.4645Z" fill="#74BE0F"/>
<path d="M175.54 51.0678C175.584 51.1545 175.59 51.2453 175.559 51.3402C175.527 51.4356 175.469 51.5045 175.382 51.5484L174.315 52.0856C174.534 52.5795 174.67 53.0805 174.723 53.5882C174.776 54.0963 174.749 54.578 174.642 55.0331C174.534 55.4887 174.349 55.8979 174.088 56.2627C173.826 56.6275 173.493 56.9111 173.091 57.1142C172.688 57.3173 172.262 57.4152 171.813 57.4086C171.364 57.4019 170.925 57.3065 170.495 57.1218C170.066 56.9372 169.662 56.6724 169.286 56.3275C168.909 55.9826 168.587 55.5749 168.321 55.105L167.255 55.6423C167.169 55.6861 167.077 55.6923 166.982 55.6611C166.887 55.629 166.818 55.5703 166.774 55.4836L166.529 54.9979C166.486 54.9106 166.479 54.8198 166.511 54.7249C166.543 54.63 166.601 54.5606 166.688 54.5168L167.754 53.9795C167.535 53.4856 167.399 52.9851 167.347 52.477C167.294 51.9693 167.321 51.4877 167.428 51.0326C167.535 50.577 167.72 50.1673 167.982 49.8025C168.244 49.4377 168.576 49.154 168.979 48.9515C169.382 48.7484 169.808 48.6499 170.256 48.6566C170.705 48.6632 171.144 48.7586 171.574 48.9438C172.004 49.128 172.407 49.3933 172.784 49.7382C173.161 50.0831 173.482 50.4902 173.748 50.9606L174.815 50.4229C174.901 50.3795 174.992 50.3729 175.088 50.4045C175.183 50.4361 175.252 50.4948 175.296 50.5821L175.54 51.0678ZM172.682 51.4979C172.491 51.1581 172.269 50.8693 172.015 50.6305C171.761 50.3923 171.496 50.2091 171.218 50.0816C170.941 49.954 170.658 49.8887 170.369 49.8851C170.081 49.8821 169.806 49.9464 169.546 50.0775C169.285 50.2091 169.07 50.3918 168.901 50.6254C168.731 50.8591 168.615 51.1254 168.553 51.4239C168.49 51.7229 168.479 52.0453 168.52 52.3912C168.561 52.7372 168.66 53.0877 168.82 53.4438L172.682 51.4979ZM172.524 55.9887C172.785 55.8571 172.999 55.6749 173.169 55.4412C173.338 55.2071 173.454 54.9412 173.516 54.6423C173.579 54.3433 173.59 54.0208 173.549 53.6749C173.508 53.329 173.408 52.9785 173.25 52.6224L169.387 54.5683C169.578 54.9076 169.801 55.1963 170.055 55.4351C170.309 55.6734 170.574 55.8565 170.852 55.9841C171.129 56.1122 171.412 56.1775 171.701 56.1805C171.989 56.1836 172.263 56.1203 172.524 55.9887Z" fill="#74BE0F"/>
<path d="M169.52 60.7327C169.486 60.6409 169.49 60.5506 169.532 60.4593C169.574 60.3684 169.64 60.3062 169.731 60.2725L177.768 57.3001C177.86 57.2664 177.951 57.27 178.042 57.3118C178.133 57.3537 178.195 57.42 178.229 57.5118L178.417 58.0215C178.451 58.1128 178.447 58.2037 178.405 58.295C178.363 58.3858 178.297 58.448 178.206 58.4817L172.084 60.746L179.663 62.5394C179.776 62.5638 179.886 62.6006 179.994 62.6506C180.102 62.7006 180.178 62.7832 180.22 62.899L180.382 63.3348C180.415 63.4261 180.411 63.5169 180.369 63.6077C180.328 63.699 180.261 63.7613 180.17 63.795L172.133 66.7674C172.042 66.8011 171.951 66.797 171.859 66.7557C171.769 66.7133 171.706 66.647 171.673 66.5557L171.484 66.0455C171.45 65.9541 171.454 65.8633 171.496 65.7725C171.538 65.6812 171.604 65.6189 171.695 65.5858L177.816 63.3215L170.238 61.5276C170.125 61.5036 170.014 61.4664 169.906 61.4169C169.798 61.3669 169.723 61.2843 169.68 61.1684L169.52 60.7327Z" fill="#74BE0F"/>
<path d="M175.27 75.4092L175.369 75.8082C175.392 75.9026 175.378 75.9924 175.326 76.0781C175.274 76.1638 175.202 76.2184 175.108 76.2419L173.228 76.7082C173.134 76.7317 173.044 76.7179 172.958 76.6659C172.872 76.6138 172.817 76.5414 172.794 76.447L172.663 75.9189C172.639 75.824 172.653 75.7347 172.705 75.649C172.757 75.5633 172.83 75.5087 172.924 75.4853L173.993 75.2199L172.497 69.1945C172.474 69.0996 172.488 69.0103 172.54 68.9246C172.591 68.8383 172.664 68.7842 172.759 68.7608L181.076 66.6965C181.17 66.673 181.26 66.6873 181.346 66.7388C181.431 66.7909 181.486 66.8633 181.509 66.9582L181.64 67.4858C181.663 67.5807 181.649 67.67 181.598 67.7562C181.546 67.8419 181.473 67.896 181.378 67.9195L173.873 69.7822L174.966 74.1853L182.472 72.323C182.566 72.2995 182.656 72.3133 182.741 72.3654C182.827 72.4169 182.882 72.4893 182.905 72.5842L183.036 73.1123C183.06 73.2067 183.046 73.2965 182.994 73.3822C182.942 73.4679 182.87 73.522 182.775 73.5455L175.27 75.4092Z" fill="#74BE0F"/>
<path d="M174.586 78.2877C174.574 78.1913 174.597 78.1035 174.658 78.0234C174.719 77.9444 174.797 77.8979 174.894 77.8852L183.388 76.7495C183.484 76.7367 183.572 76.7602 183.651 76.8214C183.731 76.8821 183.777 76.9602 183.79 77.0571L183.862 77.5964C183.875 77.6923 183.851 77.7806 183.79 77.8602C183.729 77.9398 183.651 77.9862 183.554 77.9989L177.086 78.8637L184.087 82.277C184.191 82.3255 184.291 82.3857 184.385 82.4576C184.479 82.5295 184.535 82.627 184.551 82.7494L184.613 83.2096C184.626 83.3056 184.602 83.3938 184.541 83.4739C184.48 83.553 184.402 83.5994 184.305 83.6122L175.812 84.7479C175.715 84.7607 175.628 84.7372 175.548 84.676C175.468 84.6153 175.422 84.5367 175.409 84.4403L175.337 83.901C175.325 83.8045 175.348 83.7168 175.409 83.6367C175.47 83.5576 175.549 83.5112 175.645 83.4984L182.114 82.6336L175.113 79.2204C175.008 79.1719 174.909 79.1117 174.814 79.0398C174.72 78.9673 174.664 78.8704 174.648 78.7479L174.586 78.2877Z" fill="#74BE0F"/>
<path d="M184.997 90.2803C185.01 90.7135 184.967 91.1237 184.868 91.5114C184.769 91.8997 184.609 92.2425 184.388 92.5415C184.167 92.84 183.882 93.0808 183.534 93.2634C183.186 93.4461 182.768 93.5456 182.282 93.5599C181.796 93.5742 181.371 93.5007 181.008 93.339C180.645 93.1772 180.339 92.9543 180.092 92.6691C179.845 92.3844 179.658 92.0517 179.532 91.6706C179.405 91.2895 179.336 90.8823 179.322 90.4492L179.249 88.0094L176.001 88.1063C175.904 88.1094 175.819 88.0762 175.746 88.0084C175.673 87.9395 175.635 87.8563 175.632 87.7594L175.616 87.216C175.613 87.1191 175.646 87.0339 175.714 86.9609C175.783 86.888 175.866 86.8502 175.963 86.8471L184.529 86.591C184.626 86.588 184.711 86.6211 184.784 86.6895C184.857 86.7584 184.895 86.841 184.898 86.9379L184.997 90.2803ZM180.443 87.9747L180.514 90.3476C180.533 90.9844 180.684 91.4726 180.969 91.814C181.253 92.1548 181.678 92.317 182.244 92.3002C182.81 92.2833 183.216 92.0966 183.462 91.739C183.708 91.3823 183.821 90.8859 183.802 90.2492L183.731 87.8762L180.443 87.9747Z" fill="#74BE0F"/>
<path d="M181.594 95.1858C182.087 95.2292 182.546 95.348 182.972 95.5419C183.397 95.7363 183.76 95.999 184.06 96.3302C184.36 96.6613 184.589 97.0593 184.747 97.5225C184.905 97.9858 184.963 98.5087 184.922 99.0904C184.881 99.673 184.75 100.182 184.529 100.618C184.307 101.055 184.025 101.416 183.681 101.703C183.337 101.989 182.941 102.198 182.493 102.33C182.045 102.462 181.573 102.515 181.079 102.49C180.292 102.461 179.506 102.406 178.724 102.324C178.231 102.271 177.772 102.148 177.347 101.954C176.922 101.76 176.556 101.496 176.252 101.165C175.947 100.833 175.718 100.438 175.564 99.9796C175.41 99.5215 175.354 99.0006 175.395 98.4184C175.436 97.8358 175.565 97.3286 175.781 96.8965C175.998 96.4644 176.28 96.1047 176.629 95.8195C176.977 95.5332 177.375 95.3246 177.823 95.1924C178.271 95.0603 178.743 95.0026 179.238 95.0195C180.026 95.0485 180.811 95.1042 181.594 95.1858ZM181.102 101.228C181.517 101.239 181.884 101.197 182.201 101.1C182.518 101.003 182.786 100.855 183.004 100.658C183.221 100.46 183.391 100.222 183.513 99.9424C183.635 99.6628 183.708 99.3511 183.732 99.0072C183.757 98.6628 183.728 98.3439 183.647 98.0501C183.566 97.7562 183.431 97.4965 183.243 97.2705C183.055 97.045 182.811 96.8587 182.511 96.7133C182.211 96.5684 181.854 96.4766 181.44 96.4383C181.044 96.3929 180.674 96.3582 180.33 96.3337C179.986 96.3093 179.615 96.2919 179.217 96.2817C178.802 96.2608 178.435 96.3016 178.118 96.4036C177.801 96.5052 177.533 96.6547 177.315 96.8521C177.097 97.0496 176.927 97.2878 176.806 97.5674C176.684 97.847 176.611 98.1587 176.587 98.5026C176.562 98.847 176.591 99.1659 176.672 99.4598C176.753 99.7531 176.887 100.013 177.076 100.239C177.264 100.465 177.508 100.649 177.808 100.79C178.108 100.93 178.465 101.024 178.879 101.071C179.275 101.117 179.644 101.152 179.988 101.176C180.332 101.201 180.703 101.218 181.102 101.228Z" fill="#74BE0F"/>
<path d="M174.982 104.118C174.999 104.022 175.048 103.945 175.131 103.888C175.213 103.831 175.301 103.81 175.397 103.827L183.836 105.312C183.932 105.329 184.008 105.378 184.066 105.46C184.124 105.542 184.144 105.631 184.127 105.726L183.51 109.228C183.413 109.785 183.246 110.232 183.012 110.568C182.778 110.904 182.518 111.159 182.231 111.333C181.944 111.507 181.649 111.614 181.346 111.655C181.043 111.696 180.777 111.696 180.551 111.657C180.264 111.606 180.019 111.518 179.816 111.394C179.614 111.27 179.448 111.137 179.321 110.995C179.193 110.852 179.096 110.715 179.029 110.584C178.963 110.452 178.916 110.358 178.891 110.3C178.606 110.591 178.257 110.828 177.843 111.012C177.429 111.194 176.974 111.242 176.478 111.155C176.146 111.097 175.835 110.979 175.543 110.802C175.251 110.624 175 110.393 174.789 110.109C174.579 109.824 174.429 109.488 174.341 109.099C174.252 108.711 174.249 108.281 174.332 107.809L174.982 104.118ZM178.981 105.737L176.002 105.213L175.532 107.886C175.481 108.174 175.475 108.436 175.514 108.673C175.554 108.91 175.63 109.114 175.743 109.287C175.856 109.46 175.993 109.599 176.155 109.704C176.315 109.809 176.496 109.879 176.697 109.914C176.888 109.948 177.082 109.946 177.277 109.908C177.472 109.87 177.652 109.791 177.817 109.672C177.982 109.552 178.125 109.388 178.247 109.181C178.369 108.972 178.457 108.715 178.511 108.41L178.981 105.737ZM182.795 106.409L180.157 105.944L179.72 108.426C179.617 109.01 179.653 109.467 179.828 109.799C180.003 110.13 180.304 110.334 180.731 110.409C181.158 110.484 181.511 110.396 181.788 110.143C182.066 109.891 182.256 109.473 182.359 108.89L182.795 106.409Z" fill="#74BE0F"/>
<path d="M173.936 118.148L175.2 113.722L173.693 112.574C173.632 112.529 173.575 112.462 173.522 112.373C173.469 112.285 173.467 112.155 173.516 111.985L173.65 111.513C173.672 111.437 173.718 111.379 173.79 111.339C173.861 111.299 173.935 111.291 174.011 111.312C174.054 111.324 174.108 111.359 174.175 111.414L181.331 116.837C181.413 116.907 181.488 116.997 181.557 117.109C181.627 117.22 181.637 117.361 181.589 117.531L181.37 118.296C181.322 118.467 181.239 118.581 181.121 118.639C181.003 118.697 180.891 118.735 180.785 118.75L171.849 119.565C171.762 119.577 171.698 119.577 171.655 119.565C171.579 119.544 171.52 119.497 171.481 119.426C171.441 119.355 171.433 119.282 171.455 119.204L171.589 118.733C171.638 118.563 171.708 118.453 171.8 118.406C171.891 118.359 171.975 118.332 172.051 118.326L173.936 118.148ZM176.22 114.496L175.212 118.029L180.268 117.569L176.22 114.496Z" fill="#74BE0F"/>
<path d="M176.991 130.371C176.954 130.461 176.89 130.526 176.797 130.564C176.705 130.603 176.614 130.604 176.524 130.568L168.589 127.332C168.499 127.296 168.434 127.231 168.396 127.139C168.357 127.046 168.356 126.956 168.393 126.866L168.598 126.362C168.634 126.272 168.699 126.207 168.791 126.169C168.883 126.13 168.974 126.129 169.064 126.166L172.529 127.578L174.291 123.254L170.827 121.842C170.737 121.805 170.673 121.74 170.634 121.648C170.595 121.555 170.594 121.464 170.631 121.375L170.836 120.871C170.873 120.781 170.935 120.716 171.023 120.675C171.111 120.634 171.204 120.634 171.303 120.675L179.238 123.91C179.328 123.946 179.392 124.01 179.431 124.103C179.47 124.196 179.471 124.286 179.434 124.377L179.229 124.88C179.192 124.97 179.127 125.034 179.036 125.074C178.943 125.112 178.852 125.113 178.762 125.077L175.396 123.705L173.634 128.029L176.999 129.401C177.089 129.437 177.154 129.502 177.193 129.594C177.232 129.686 177.233 129.777 177.196 129.868L176.991 130.371Z" fill="#74BE0F"/>
<path d="M166.518 135.023L168.708 130.975L167.485 129.528C167.435 129.472 167.394 129.394 167.362 129.296C167.33 129.198 167.355 129.071 167.439 128.916L167.673 128.484C167.711 128.414 167.769 128.367 167.847 128.344C167.924 128.321 167.999 128.328 168.069 128.366C168.107 128.388 168.154 128.432 168.207 128.501L174.022 135.343C174.086 135.428 174.14 135.532 174.184 135.657C174.227 135.78 174.207 135.921 174.122 136.076L173.744 136.776C173.66 136.931 173.554 137.025 173.426 137.057C173.298 137.088 173.181 137.1 173.074 137.093L164.173 135.956C164.086 135.949 164.023 135.935 163.984 135.915C163.914 135.877 163.867 135.819 163.844 135.741C163.821 135.663 163.828 135.589 163.866 135.519L164.1 135.087C164.184 134.931 164.276 134.841 164.376 134.814C164.476 134.787 164.563 134.779 164.638 134.79L166.518 135.023ZM169.538 131.952L167.789 135.183L172.826 135.827L169.538 131.952Z" fill="#74BE0F"/>
<path d="M128.794 177.636C128.706 177.676 128.615 177.68 128.52 177.646C128.426 177.612 128.358 177.551 128.318 177.463L124.685 169.702C124.643 169.614 124.64 169.522 124.674 169.429C124.708 169.335 124.769 169.267 124.857 169.226L125.349 168.996C125.438 168.954 125.528 168.95 125.623 168.985C125.717 169.019 125.785 169.08 125.826 169.168L129.104 176.173L133.333 174.193L130.055 167.189C130.014 167.1 130.01 167.009 130.044 166.916C130.078 166.821 130.14 166.754 130.227 166.713L130.72 166.482C130.808 166.441 130.899 166.437 130.993 166.471C131.087 166.505 131.155 166.567 131.196 166.654L134.829 174.416C134.87 174.504 134.874 174.595 134.839 174.689C134.805 174.782 134.744 174.85 134.656 174.892L128.794 177.636Z" fill="#74BE0F"/>
<path d="M122.146 180.109C121.736 180.25 121.331 180.331 120.932 180.352C120.532 180.373 120.157 180.322 119.806 180.2C119.455 180.078 119.14 179.877 118.862 179.599C118.584 179.321 118.365 178.951 118.207 178.492C118.048 178.032 117.992 177.605 118.039 177.21C118.085 176.815 118.208 176.457 118.406 176.137C118.603 175.816 118.866 175.538 119.192 175.304C119.519 175.07 119.887 174.882 120.296 174.741L122.604 173.946L121.545 170.873C121.513 170.781 121.52 170.69 121.564 170.6C121.607 170.51 121.675 170.45 121.767 170.418L122.281 170.241C122.374 170.209 122.465 170.215 122.554 170.259C122.644 170.303 122.705 170.371 122.737 170.463L125.529 178.564C125.56 178.656 125.554 178.747 125.51 178.837C125.467 178.927 125.399 178.988 125.307 179.019L122.146 180.109ZM122.993 175.074L120.748 175.848C120.146 176.055 119.724 176.346 119.483 176.719C119.242 177.092 119.214 177.546 119.398 178.081C119.583 178.616 119.882 178.948 120.296 179.077C120.71 179.205 121.218 179.166 121.819 178.958L124.064 178.185L122.993 175.074Z" fill="#74BE0F"/>
<path d="M116.433 178.32C116.537 178.804 116.559 179.278 116.499 179.742C116.439 180.206 116.295 180.629 116.067 181.014C115.839 181.399 115.526 181.735 115.131 182.023C114.735 182.31 114.253 182.521 113.684 182.653C113.116 182.786 112.59 182.811 112.108 182.727C111.626 182.645 111.197 182.482 110.823 182.238C110.448 181.993 110.131 181.677 109.872 181.288C109.613 180.899 109.424 180.464 109.302 179.984C109.098 179.223 108.918 178.457 108.765 177.684C108.67 177.198 108.653 176.723 108.712 176.26C108.773 175.796 108.915 175.37 109.143 174.981C109.37 174.592 109.68 174.256 110.073 173.973C110.465 173.691 110.945 173.484 111.514 173.351C112.083 173.218 112.606 173.192 113.083 173.271C113.56 173.351 113.986 173.515 114.362 173.763C114.738 174.011 115.055 174.33 115.314 174.719C115.573 175.109 115.767 175.542 115.896 176.02C116.101 176.781 116.28 177.547 116.433 178.32ZM110.514 179.633C110.626 180.034 110.775 180.371 110.962 180.645C111.149 180.92 111.368 181.132 111.621 181.282C111.874 181.432 112.152 181.523 112.455 181.557C112.758 181.59 113.077 181.568 113.413 181.49C113.748 181.412 114.045 181.29 114.301 181.126C114.558 180.962 114.767 180.756 114.927 180.51C115.088 180.264 115.193 179.975 115.243 179.646C115.294 179.317 115.276 178.948 115.19 178.542C115.117 178.15 115.041 177.787 114.963 177.45C114.885 177.115 114.792 176.755 114.684 176.371C114.581 175.969 114.434 175.631 114.243 175.358C114.053 175.084 113.831 174.873 113.578 174.723C113.324 174.573 113.047 174.481 112.744 174.447C112.441 174.414 112.121 174.436 111.786 174.515C111.45 174.593 111.154 174.714 110.897 174.878C110.64 175.043 110.432 175.248 110.271 175.495C110.11 175.741 110.007 176.028 109.961 176.357C109.915 176.686 109.931 177.053 110.008 177.463C110.082 177.854 110.157 178.218 110.235 178.554C110.314 178.89 110.407 179.249 110.514 179.633Z" fill="#74BE0F"/>
<path d="M106.816 183.53C106.828 183.627 106.803 183.714 106.741 183.793C106.68 183.872 106.601 183.918 106.505 183.93L101.081 184.602C100.984 184.614 100.897 184.589 100.817 184.528C100.738 184.466 100.693 184.387 100.681 184.29L99.7298 176.615L99.4267 176.653C99.3303 176.664 99.2425 176.64 99.1635 176.578C99.0844 176.516 99.039 176.438 99.0272 176.341L98.789 174.418C98.7772 174.323 98.8017 174.235 98.8635 174.155C98.9252 174.077 99.0043 174.031 99.1007 174.019L99.6405 173.952C99.7369 173.94 99.8247 173.964 99.9037 174.026C99.9828 174.087 100.028 174.166 100.04 174.263L100.175 175.356L106.086 174.623L105.95 173.53C105.939 173.434 105.963 173.347 106.025 173.267C106.087 173.188 106.166 173.143 106.262 173.131L106.802 173.063C106.898 173.052 106.986 173.076 107.065 173.138C107.144 173.199 107.19 173.278 107.201 173.375L107.44 175.297C107.451 175.393 107.427 175.481 107.365 175.56C107.304 175.639 107.225 175.685 107.128 175.697L106.917 175.723C106.733 175.746 106.576 175.79 106.446 175.855C106.316 175.92 106.216 176.017 106.148 176.146C106.08 176.275 106.038 176.442 106.023 176.649C106.008 176.856 106.02 177.112 106.058 177.42L106.816 183.53ZM104.78 177.353C104.754 177.142 104.742 176.903 104.745 176.635C104.747 176.368 104.8 176.148 104.904 175.974L100.981 176.46L101.829 183.306L105.463 182.856L104.78 177.353Z" fill="#74BE0F"/>
<path d="M98.3 184.344C98.3459 184.423 98.3694 184.488 98.3709 184.542C98.3725 184.622 98.3454 184.69 98.2893 184.749C98.2332 184.808 98.1653 184.838 98.0857 184.84L97.5154 184.853C97.3388 184.857 97.2118 184.824 97.1348 184.756C97.0582 184.686 96.9965 184.613 96.9506 184.534L94.4598 179.986L92.1635 184.642C92.1211 184.723 92.063 184.799 91.9895 184.872C91.916 184.944 91.791 184.982 91.614 184.986L91.0436 184.999C90.964 185.001 90.8946 184.974 90.836 184.917C90.7773 184.861 90.7467 184.793 90.7452 184.714C90.7441 184.661 90.7645 184.594 90.8069 184.513L93.8522 178.341C94.0129 178.028 94.1808 177.708 94.3547 177.381C94.5287 177.054 94.7257 176.76 94.945 176.499C95.1644 176.237 95.4119 176.021 95.6868 175.851C95.9618 175.681 96.2761 175.592 96.6297 175.585L97.3194 175.569C97.4169 175.567 97.5016 175.601 97.574 175.669C97.6465 175.739 97.6837 175.822 97.6858 175.919L97.6965 176.397C97.6985 176.494 97.6654 176.579 97.596 176.651C97.5271 176.724 97.4439 176.761 97.3465 176.763L96.7761 176.776C96.5996 176.78 96.4368 176.834 96.2889 176.939C96.1409 177.044 96.0021 177.184 95.8736 177.36C95.745 177.535 95.621 177.731 95.5022 177.945C95.3833 178.16 95.2644 178.384 95.1455 178.616L98.3 184.344Z" fill="#74BE0F"/>
<path d="M87.2665 180.343L83.0534 175.728C83.0039 175.672 82.9723 175.623 82.9569 175.582C82.9422 175.541 82.9355 175.508 82.9376 175.481C82.9432 175.401 82.9763 175.335 83.0376 175.282C83.0993 175.229 83.1692 175.205 83.2488 175.21L84.0692 175.267C84.1926 175.275 84.2926 175.306 84.3686 175.361C84.4447 175.414 84.4993 175.461 84.5319 175.498L88.0287 179.332L88.266 175.918C88.2726 175.821 88.3139 175.74 88.3894 175.674C88.4649 175.608 88.5512 175.579 88.6481 175.586L89.1904 175.623C89.2879 175.63 89.369 175.671 89.4348 175.746C89.5006 175.821 89.5302 175.908 89.5231 176.005L88.9287 184.554C88.9221 184.651 88.8807 184.733 88.8052 184.798C88.7297 184.864 88.6435 184.894 88.5466 184.887L88.0042 184.849C87.9073 184.842 87.8257 184.801 87.7599 184.726C87.6946 184.65 87.6645 184.564 87.6716 184.467L87.8859 181.384L84.1273 184.38C84.0896 184.413 84.0294 184.451 83.9467 184.494C83.8641 184.537 83.761 184.554 83.6375 184.546L82.8702 184.493C82.7911 184.487 82.7248 184.454 82.6712 184.393C82.6182 184.331 82.5942 184.261 82.5993 184.182C82.6008 184.155 82.6121 184.123 82.6325 184.084C82.6529 184.046 82.6911 184.002 82.7483 183.952L87.2665 180.343Z" fill="#74BE0F"/>
<path d="M74.698 175.02L74.2929 174.95C74.197 174.934 74.1204 174.884 74.0628 174.803C74.0051 174.72 73.9847 174.632 74.0011 174.536L74.3322 172.628C74.349 172.532 74.398 172.456 74.4801 172.398C74.5623 172.341 74.6505 172.32 74.7464 172.337L75.2821 172.43C75.3781 172.446 75.4546 172.496 75.5122 172.578C75.5699 172.659 75.5903 172.748 75.5735 172.844L75.3852 173.929L81.5019 174.99C81.5978 175.007 81.6743 175.056 81.732 175.138C81.7896 175.219 81.81 175.308 81.7932 175.404L80.3279 183.847C80.3111 183.943 80.2621 184.02 80.18 184.077C80.0983 184.135 80.0096 184.155 79.9136 184.139L79.3779 184.045C79.282 184.029 79.2055 183.98 79.1479 183.898C79.0902 183.816 79.0698 183.727 79.0861 183.632L80.4085 176.012L75.9388 175.236L74.6164 182.856C74.6 182.951 74.5511 183.028 74.4689 183.086C74.3873 183.143 74.2985 183.164 74.2026 183.147L73.6669 183.054C73.571 183.037 73.4944 182.988 73.4368 182.906C73.3791 182.824 73.3587 182.736 73.3751 182.64L74.698 175.02Z" fill="#74BE0F"/>
<path d="M72.3283 173.232C72.4217 173.259 72.4926 173.316 72.5405 173.404C72.589 173.492 72.5992 173.582 72.5722 173.676L70.1829 181.905C70.1559 181.999 70.0982 182.069 70.011 182.118C69.9233 182.166 69.8329 182.177 69.7391 182.15L69.2172 181.998C69.1238 181.97 69.0529 181.913 69.0044 181.826C68.9565 181.738 68.9457 181.647 68.9728 181.554L70.7921 175.286L64.8433 180.314C64.7571 180.39 64.6617 180.456 64.5571 180.514C64.453 180.571 64.3418 180.583 64.2224 180.548L63.7765 180.418C63.6831 180.391 63.6122 180.334 63.5638 180.247C63.5158 180.158 63.5051 180.068 63.5321 179.975L65.9213 171.745C65.9484 171.651 66.006 171.581 66.0933 171.533C66.181 171.484 66.2718 171.474 66.3652 171.501L66.8871 171.653C66.981 171.68 67.0514 171.737 67.0999 171.825C67.1483 171.912 67.1585 172.003 67.1315 172.096L65.3122 178.364L71.261 173.336C71.3477 173.26 71.4426 173.193 71.5472 173.136C71.6518 173.079 71.763 173.067 71.8819 173.102L72.3283 173.232Z" fill="#74BE0F"/>
<path d="M55.0195 177.038C54.9298 177.001 54.8655 176.937 54.8262 176.844C54.7874 176.752 54.7864 176.661 54.8236 176.571L58.0649 168.638C58.1016 168.548 58.1664 168.483 58.2582 168.445C58.3506 168.406 58.4414 168.405 58.5317 168.442L59.0352 168.647C59.1255 168.684 59.1898 168.748 59.2281 168.841C59.2669 168.933 59.2679 169.024 59.2312 169.115L57.9516 172.246L60.0638 173.109L63.1234 170.705C63.1795 170.661 63.2632 170.614 63.3744 170.564C63.4856 170.514 63.6234 170.522 63.7871 170.589L64.3152 170.805C64.3892 170.836 64.4417 170.888 64.4733 170.963C64.505 171.038 64.5055 171.112 64.4754 171.186C64.4585 171.227 64.4279 171.267 64.383 171.306L61.2092 173.778C61.6581 174.152 61.9678 174.604 62.1392 175.132C62.3101 175.661 62.2601 176.256 61.9892 176.92C61.8056 177.37 61.5683 177.722 61.278 177.976C60.9877 178.23 60.6658 178.404 60.3122 178.498C59.9587 178.593 59.5832 178.616 59.1873 178.569C58.7909 178.521 58.3919 178.416 57.9914 178.252L55.0195 177.038ZM56.3057 176.274L58.3812 177.122C58.971 177.363 59.4715 177.441 59.8832 177.356C60.2949 177.271 60.6082 176.966 60.8219 176.443C61.0362 175.919 61.0291 175.474 60.801 175.109C60.573 174.743 60.1643 174.44 59.575 174.2L57.4996 173.352L56.3057 176.274Z" fill="#74BE0F"/>
<path d="M49.8344 170.519C50.0502 170.184 50.2451 169.868 50.4191 169.57C50.5931 169.272 50.7732 168.947 50.9584 168.595C51.3058 167.947 51.4129 167.321 51.2798 166.716C51.1466 166.11 50.7405 165.61 50.0609 165.213C49.6941 164.999 49.3584 164.864 49.0528 164.808C48.7472 164.753 48.4702 164.75 48.2212 164.799C47.9722 164.848 47.7493 164.94 47.5518 165.076C47.3549 165.212 47.1779 165.362 47.0202 165.526C46.9559 165.601 46.8809 165.642 46.7952 165.648C46.71 165.654 46.636 165.64 46.5753 165.604L46.0483 165.296C45.9794 165.256 45.935 165.197 45.9141 165.118C45.8932 165.039 45.9034 164.965 45.9432 164.896C46.0983 164.649 46.3238 164.412 46.6197 164.185C46.9161 163.959 47.2687 163.789 47.6784 163.674C48.088 163.56 48.5447 163.533 49.0482 163.591C49.5518 163.65 50.09 163.846 50.6625 164.181C51.1589 164.471 51.5558 164.808 51.8537 165.192C52.1517 165.575 52.3598 165.986 52.4782 166.424C52.5961 166.861 52.6216 167.314 52.5532 167.781C52.4854 168.249 52.3272 168.711 52.0792 169.172C51.7053 169.864 51.3084 170.544 50.8885 171.21C50.6145 171.645 50.29 172.008 49.914 172.3C49.5385 172.593 49.1309 172.796 48.6916 172.907C48.2523 173.02 47.7921 173.04 47.311 172.969C46.8304 172.898 46.3417 172.718 45.8452 172.427C45.2723 172.093 44.8371 171.721 44.5387 171.311C44.2407 170.901 44.0402 170.49 43.9382 170.077C43.8366 169.664 43.8111 169.273 43.8632 168.904C43.9152 168.534 44.0111 168.222 44.1504 167.966C44.1907 167.897 44.2499 167.852 44.329 167.831C44.4075 167.81 44.481 167.821 44.5499 167.86L45.0769 168.169C45.1381 168.204 45.1866 168.261 45.2233 168.339C45.2601 168.416 45.2616 168.501 45.2274 168.595C45.1616 168.812 45.1182 169.04 45.0968 169.279C45.0754 169.517 45.1045 169.757 45.1835 169.998C45.2626 170.239 45.4019 170.478 45.6004 170.718C45.7988 170.956 46.0815 171.182 46.4478 171.397C47.1279 171.794 47.7636 171.901 48.3559 171.72C48.9482 171.54 49.4411 171.139 49.8344 170.519Z" fill="#74BE0F"/>
<path d="M40.8137 159.169C40.7352 159.113 40.6877 159.035 40.6719 158.936C40.6561 158.837 40.6765 158.749 40.7336 158.67L41.0137 158.283C41.0709 158.204 41.1489 158.157 41.2474 158.141C41.3464 158.125 41.4351 158.146 41.5137 158.203L45.8559 161.343C45.935 161.4 45.9824 161.478 45.9978 161.577C46.0136 161.676 45.9932 161.764 45.936 161.843L40.9137 168.786C40.8566 168.865 40.779 168.912 40.6801 168.928C40.5811 168.944 40.4923 168.924 40.4137 168.866L36.1577 165.788C36.0792 165.731 36.0317 165.653 36.0159 165.554C36.0001 165.456 36.0205 165.366 36.0776 165.288L36.3572 164.901C36.4144 164.822 36.4924 164.775 36.5909 164.759C36.6899 164.743 36.7786 164.764 36.8572 164.821L40.3826 167.371L42.0229 165.103L38.7342 162.724C38.6556 162.667 38.6082 162.589 38.5924 162.49C38.5766 162.392 38.597 162.303 38.6541 162.224L38.9337 161.837C38.9908 161.758 39.0689 161.711 39.1673 161.695C39.2663 161.68 39.3551 161.7 39.4337 161.757L42.7223 164.136L44.4248 161.782L40.8137 159.169Z" fill="#74BE0F"/>
<path d="M31.09 161.532C30.7645 161.246 30.4941 160.934 30.2783 160.597C30.0625 160.26 29.9206 159.908 29.8533 159.544C29.7865 159.178 29.8048 158.806 29.9084 158.426C30.013 158.047 30.2257 157.674 30.5466 157.309C30.8681 156.944 31.2114 156.684 31.5777 156.529C31.944 156.374 32.3155 156.304 32.692 156.317C33.069 156.33 33.4399 156.421 33.8047 156.589C34.1695 156.757 34.5144 156.983 34.8399 157.27L36.6725 158.882L38.8193 156.442C38.8836 156.369 38.9658 156.329 39.0653 156.323C39.1652 156.316 39.2515 156.346 39.3244 156.41L39.7326 156.769C39.806 156.833 39.8453 156.915 39.852 157.015C39.8586 157.114 39.8295 157.201 39.7652 157.274L34.1052 163.708C34.0409 163.781 33.9593 163.821 33.8593 163.827C33.7598 163.834 33.6731 163.805 33.6001 163.74L31.09 161.532ZM35.8837 159.777L34.1011 158.209C33.6231 157.789 33.1624 157.566 32.719 157.541C32.2757 157.516 31.867 157.716 31.493 158.141C31.1196 158.566 30.9788 158.99 31.0716 159.413C31.165 159.836 31.4502 160.258 31.9282 160.679L33.7113 162.247L35.8837 159.777Z" fill="#74BE0F"/>
<path d="M23.1664 153.636C23.0995 153.565 23.0679 153.48 23.0705 153.38C23.0735 153.28 23.1102 153.196 23.1812 153.13L23.5286 152.802C23.5995 152.735 23.6847 152.703 23.7847 152.706C23.8852 152.709 23.9684 152.746 24.0347 152.817L25.7362 154.621L31.3631 149.317C31.434 149.25 31.5192 149.218 31.6192 149.221C31.7192 149.224 31.8023 149.261 31.8692 149.332L32.2421 149.727C32.3089 149.798 32.3406 149.883 32.338 149.983C32.3355 150.083 32.2982 150.166 32.2273 150.233L26.6004 155.538L28.3019 157.343C28.3688 157.414 28.4004 157.499 28.3978 157.599C28.3953 157.699 28.358 157.782 28.2871 157.849L27.9397 158.177C27.8688 158.244 27.7836 158.275 27.6836 158.273C27.5836 158.27 27.5004 158.233 27.4336 158.162L23.1664 153.636Z" fill="#74BE0F"/>
<path d="M28.6572 145.785C28.7169 145.862 28.7404 145.95 28.7276 146.05C28.7149 146.149 28.67 146.228 28.5929 146.288L21.8156 151.531C21.7385 151.59 21.6508 151.614 21.5513 151.601C21.4523 151.589 21.3727 151.544 21.313 151.467L20.9804 151.036C20.9212 150.96 20.8978 150.872 20.91 150.772C20.9228 150.673 20.9676 150.593 21.0447 150.533L26.2068 146.541L18.4381 147.099C18.3233 147.11 18.207 147.108 18.0892 147.093C17.9713 147.078 17.8744 147.021 17.7989 146.923L17.5147 146.556C17.455 146.479 17.4315 146.391 17.4443 146.291C17.457 146.192 17.5019 146.112 17.5785 146.053L24.3563 140.81C24.4334 140.75 24.5216 140.727 24.6206 140.74C24.7201 140.752 24.7992 140.797 24.8589 140.874L25.1915 141.304C25.2512 141.381 25.2747 141.469 25.2619 141.569C25.2497 141.668 25.2048 141.748 25.1272 141.807L19.9651 145.8L27.7338 145.242C27.8491 145.231 27.9654 145.233 28.0827 145.248C28.2006 145.263 28.2975 145.32 28.373 145.418L28.6572 145.785Z" fill="#74BE0F"/>
<path d="M13.1873 140.401C13.1368 140.318 13.1235 140.228 13.147 140.131C13.1704 140.034 13.224 139.96 13.3067 139.909L14.3265 139.288C14.0689 138.814 13.8934 138.325 13.7995 137.823C13.7061 137.321 13.6949 136.839 13.7653 136.376C13.8362 135.914 13.9873 135.491 14.2194 135.106C14.4515 134.722 14.7597 134.413 15.1449 134.178C15.5301 133.944 15.9469 133.812 16.3948 133.782C16.8428 133.753 17.2882 133.814 17.7315 133.963C18.1749 134.113 18.5978 134.344 19.0009 134.658C19.4044 134.971 19.757 135.352 20.0605 135.799L21.0804 135.178C21.1636 135.127 21.2539 135.114 21.3508 135.138C21.4477 135.162 21.5217 135.215 21.5727 135.298L21.8554 135.762C21.9059 135.845 21.9192 135.936 21.8957 136.032C21.8722 136.129 21.8186 136.203 21.7355 136.254L20.7156 136.875C20.9733 137.35 21.1493 137.838 21.2426 138.34C21.336 138.842 21.3477 139.325 21.2768 139.787C21.2064 140.249 21.0549 140.673 20.8228 141.057C20.5911 141.442 20.2825 141.751 19.8973 141.985C19.5121 142.22 19.0958 142.352 18.6473 142.381C18.1994 142.411 17.754 142.35 17.3106 142.2C16.8678 142.05 16.4443 141.819 16.0413 141.505C15.6382 141.192 15.2852 140.812 14.9816 140.365L13.9617 140.986C13.8786 141.036 13.7888 141.049 13.6913 141.026C13.5944 141.002 13.5204 140.949 13.4694 140.866L13.1873 140.401ZM15.8005 135.255C15.551 135.407 15.3515 135.606 15.2015 135.852C15.0515 136.099 14.9571 136.374 14.9189 136.677C14.8806 136.979 14.8954 137.302 14.9632 137.644C15.0316 137.985 15.1592 138.327 15.3464 138.668L19.0402 136.42C18.8228 136.097 18.5779 135.827 18.306 135.609C18.0341 135.392 17.7545 135.23 17.4678 135.125C17.181 135.02 16.8938 134.978 16.6061 134.998C16.3183 135.017 16.0494 135.103 15.8005 135.255ZM16.0015 139.744C16.2188 140.068 16.4637 140.338 16.7356 140.555C17.0081 140.773 17.2872 140.934 17.5739 141.039C17.8606 141.144 18.1478 141.187 18.4356 141.167C18.7238 141.146 18.9922 141.061 19.2417 140.909C19.4912 140.757 19.6907 140.558 19.8406 140.311C19.9906 140.065 20.085 139.79 20.1233 139.487C20.1616 139.184 20.1468 138.862 20.0789 138.52C20.0105 138.179 19.883 137.837 19.6958 137.495L16.0015 139.744Z" fill="#74BE0F"/>
<path d="M18.4099 130.279C18.4512 130.367 18.4543 130.458 18.4196 130.552C18.3854 130.646 18.3242 130.713 18.2359 130.754L10.4632 134.361C10.3749 134.403 10.2841 134.406 10.1897 134.371C10.0959 134.337 10.0285 134.276 9.9872 134.188L9.75813 133.694C9.71731 133.606 9.71425 133.515 9.74843 133.421C9.78262 133.327 9.84435 133.26 9.9321 133.219L15.8518 130.471L8.15307 129.291C8.03879 129.277 7.92604 129.248 7.81431 129.207C7.70309 129.166 7.62095 129.09 7.56891 128.978L7.37351 128.557C7.33269 128.468 7.32963 128.377 7.36381 128.283C7.398 128.189 7.45973 128.122 7.54748 128.081L15.3202 124.474C15.4085 124.433 15.4998 124.43 15.5937 124.464C15.688 124.498 15.7549 124.56 15.7962 124.648L16.0253 125.141C16.0661 125.23 16.0697 125.32 16.035 125.414C16.0008 125.508 15.9396 125.576 15.8513 125.616L9.93159 128.364L17.6303 129.544C17.7446 129.559 17.8574 129.587 17.9691 129.628C18.0808 129.669 18.1625 129.745 18.2145 129.858L18.4099 130.279Z" fill="#74BE0F"/>
<path d="M11.5037 116.122L11.3731 115.732C11.3419 115.64 11.3491 115.549 11.3935 115.46C11.4379 115.37 11.5062 115.31 11.5986 115.279L13.4347 114.663C13.5271 114.631 13.6174 114.639 13.7072 114.683C13.797 114.728 13.8572 114.796 13.8878 114.888L14.0607 115.404C14.0919 115.496 14.0847 115.587 14.0403 115.676C13.9954 115.766 13.9271 115.826 13.8352 115.857L12.7914 116.207L14.7668 122.093C14.798 122.186 14.7908 122.276 14.7464 122.366C14.7021 122.455 14.6337 122.516 14.5413 122.546L6.41761 125.273C6.32527 125.304 6.23496 125.297 6.14517 125.252C6.05538 125.208 5.99517 125.14 5.96456 125.047L5.79161 124.531C5.76049 124.439 5.76763 124.349 5.81202 124.259C5.85691 124.169 5.92528 124.109 6.01711 124.078L13.3485 121.618L11.9052 117.317L4.57379 119.777C4.48144 119.809 4.39114 119.802 4.30084 119.757C4.21155 119.713 4.15135 119.644 4.12023 119.552L3.94728 119.036C3.91615 118.944 3.9233 118.853 3.96768 118.764C4.01207 118.674 4.08095 118.614 4.17278 118.583L11.5037 116.122Z" fill="#74BE0F"/>
<path d="M11.9501 113.188C11.971 113.284 11.9542 113.372 11.8996 113.456C11.845 113.541 11.771 113.593 11.6756 113.614L3.29984 115.425C3.20444 115.446 3.11516 115.429 3.03097 115.374C2.94679 115.321 2.89424 115.246 2.87384 115.151L2.75853 114.619C2.73813 114.524 2.75496 114.435 2.80904 114.351C2.86312 114.267 2.93761 114.214 3.03302 114.194L9.4119 112.814L2.16059 109.971C2.05243 109.932 1.94835 109.879 1.84836 109.815C1.74836 109.75 1.68561 109.658 1.65908 109.537L1.56112 109.083C1.54071 108.988 1.55755 108.898 1.61163 108.814C1.66622 108.73 1.74071 108.677 1.8356 108.657L10.2114 106.845C10.3068 106.825 10.3961 106.842 10.4802 106.896C10.5644 106.95 10.617 107.025 10.6374 107.12L10.7527 107.651C10.7731 107.747 10.7562 107.836 10.7022 107.92C10.6481 108.004 10.5736 108.057 10.4787 108.077L4.09982 109.457L11.3511 112.299C11.4593 112.339 11.5634 112.392 11.6629 112.456C11.7629 112.52 11.8256 112.613 11.8521 112.734L11.9501 113.188Z" fill="#74BE0F"/>
<path d="M0.618237 102.066C0.5713 101.636 0.581503 101.223 0.649358 100.829C0.717724 100.434 0.849863 100.079 1.0468 99.7644C1.24373 99.449 1.50852 99.1863 1.84116 98.9766C2.1738 98.7664 2.58246 98.6353 3.06561 98.5822C3.54927 98.5292 3.97834 98.5695 4.35282 98.7016C4.72781 98.8337 5.04974 99.0317 5.31861 99.296C5.58799 99.5603 5.80073 99.8776 5.95634 100.247C6.11246 100.617 6.21399 101.017 6.26143 101.448L6.52724 103.875L9.75827 103.521C9.85469 103.51 9.94245 103.536 10.0205 103.599C10.0986 103.662 10.143 103.741 10.1532 103.838L10.2123 104.379C10.2231 104.476 10.197 104.563 10.1343 104.641C10.0715 104.719 9.99193 104.763 9.895 104.774L1.3774 105.707C1.28097 105.717 1.19322 105.691 1.11516 105.629C1.03761 105.566 0.992716 105.487 0.982512 105.39L0.618237 102.066ZM5.34054 104.005L5.08239 101.644C5.013 101.011 4.82321 100.536 4.51251 100.219C4.20231 99.9016 3.76559 99.7735 3.20285 99.8353C2.64011 99.8965 2.25084 100.115 2.0335 100.49C1.81667 100.865 1.74269 101.369 1.81208 102.003L2.07023 104.363L5.34054 104.005Z" fill="#74BE0F"/>
<path d="M3.65459 96.9356C3.1592 96.9351 2.69135 96.8565 2.25157 96.6999C1.81128 96.5432 1.42711 96.3131 1.09957 96.009C0.772024 95.705 0.509277 95.3284 0.311834 94.8805C0.114391 94.4325 0.0108228 93.9167 0.00163942 93.3335C-0.00754397 92.7504 0.0786779 92.231 0.261325 91.7769C0.444483 91.3228 0.694475 90.9386 1.01232 90.6238C1.33017 90.309 1.70618 90.0662 2.14137 89.8953C2.57656 89.7249 3.04134 89.631 3.53623 89.6142C4.32294 89.5749 5.10965 89.5616 5.89687 89.5759C6.39226 89.5861 6.8601 89.6687 7.3004 89.8249C7.74069 89.9815 8.12741 90.2121 8.45903 90.5157C8.79117 90.8203 9.05392 91.1937 9.24677 91.6371C9.43962 92.0805 9.54064 92.5943 9.55033 93.1779C9.56002 93.7616 9.47533 94.2784 9.29677 94.7279C9.1182 95.1774 8.86821 95.5595 8.54577 95.8743C8.22333 96.1891 7.84477 96.432 7.41009 96.6024C6.9749 96.7733 6.51012 96.8713 6.01523 96.8968C5.22852 96.9366 4.44181 96.9493 3.65459 96.9356ZM3.62245 90.8733C3.20715 90.8978 2.84594 90.9718 2.5383 91.0968C2.23065 91.2208 1.97709 91.3907 1.7771 91.6065C1.5771 91.8218 1.42864 92.0744 1.3317 92.3631C1.23477 92.6519 1.18885 92.9692 1.19446 93.3136C1.20007 93.6585 1.25619 93.9738 1.36231 94.2596C1.46843 94.5453 1.62506 94.7922 1.83169 95.0014C2.03882 95.2101 2.298 95.3738 2.60921 95.4927C2.92094 95.6116 3.28419 95.6723 3.7 95.6738C4.09794 95.6851 4.46936 95.6876 4.81476 95.6825C5.15965 95.6769 5.53055 95.6621 5.9285 95.6381C6.34379 95.6228 6.70552 95.5504 7.01265 95.4213C7.32029 95.2927 7.57386 95.1203 7.77385 94.9045C7.97385 94.6891 8.12231 94.4371 8.21925 94.1478C8.31618 93.8596 8.3621 93.5417 8.35649 93.1973C8.35087 92.8524 8.29475 92.5371 8.18863 92.2514C8.08252 91.9652 7.92589 91.7182 7.71875 91.509C7.51213 91.3004 7.25295 91.1386 6.94173 91.0244C6.63052 90.9101 6.26676 90.8473 5.85095 90.8366C5.45249 90.8259 5.08108 90.8228 4.73619 90.8279C4.3913 90.8341 4.01988 90.8489 3.62245 90.8733Z" fill="#74BE0F"/>
<path d="M9.51278 87.4645C9.50359 87.561 9.46023 87.6421 9.38319 87.7058C9.30615 87.7696 9.21942 87.7972 9.12248 87.788L0.591617 86.9788C0.495192 86.9691 0.414582 86.9263 0.350808 86.8492C0.287035 86.7722 0.259995 86.6854 0.268668 86.588L0.604372 83.0487C0.657432 82.4855 0.78804 82.0268 0.994666 81.6732C1.20129 81.3202 1.44108 81.0452 1.7125 80.8487C1.98392 80.6523 2.26963 80.5217 2.56911 80.4569C2.86808 80.3916 3.13236 80.3702 3.36143 80.3921C3.65224 80.4197 3.90376 80.4875 4.11498 80.5946C4.32722 80.7028 4.50221 80.8222 4.64047 80.9538C4.77925 81.0855 4.8869 81.214 4.96393 81.3395C5.04097 81.4656 5.09454 81.5564 5.12464 81.6115C5.38535 81.2987 5.71442 81.0344 6.11237 80.8186C6.51032 80.6033 6.9603 80.5191 7.46233 80.5671C7.79701 80.5987 8.1169 80.6916 8.42199 80.8452C8.7276 80.9987 8.99596 81.2084 9.2286 81.4753C9.46125 81.7421 9.63675 82.0656 9.75614 82.4462C9.87552 82.8268 9.91276 83.2554 9.86736 83.7319L9.51278 87.4645ZM1.5421 85.8033L4.20987 86.0564L4.44762 83.5472C4.50323 82.9574 4.4313 82.5038 4.23028 82.187C4.02927 81.8707 3.71295 81.6916 3.28184 81.6508C2.85073 81.61 2.50636 81.7258 2.24973 81.9997C1.99311 82.2727 1.83648 82.7043 1.78087 83.2941L1.5421 85.8033ZM5.3981 86.1691L8.40924 86.4543L8.66535 83.7523C8.6929 83.461 8.6776 83.1992 8.61995 82.9666C8.56229 82.7339 8.46995 82.536 8.34342 82.3722C8.2169 82.2089 8.06894 82.0814 7.90007 81.9895C7.7312 81.8977 7.54549 81.8421 7.34294 81.8232C7.14958 81.8049 6.95673 81.8222 6.7649 81.8758C6.57358 81.9288 6.40012 82.0212 6.24553 82.1538C6.09094 82.286 5.96135 82.461 5.85625 82.6778C5.75116 82.8957 5.68432 83.1579 5.65473 83.4671L5.3981 86.1691Z" fill="#74BE0F"/>
<path d="M9.43275 73.4028L8.52869 77.916L10.123 78.939C10.1873 78.9788 10.2496 79.041 10.3092 79.1252C10.3689 79.2094 10.3817 79.338 10.347 79.5114L10.2506 79.9926C10.2353 80.0706 10.1934 80.1318 10.1256 80.1773C10.0582 80.2222 9.98528 80.2369 9.90722 80.2211C9.86386 80.2125 9.80671 80.1834 9.7358 80.1329L2.16715 75.3018C2.08042 75.239 1.99828 75.1553 1.92022 75.0492C1.84216 74.9436 1.82073 74.8043 1.85543 74.6303L2.01205 73.8502C2.04675 73.6768 2.12072 73.5564 2.23347 73.4885C2.34623 73.4212 2.4549 73.3752 2.55898 73.3507L11.4021 71.8212C11.4873 71.8023 11.551 71.7972 11.5944 71.8059C11.6725 71.8217 11.7337 71.863 11.7791 71.9309C11.8245 71.9987 11.8388 72.0712 11.823 72.1497L11.7266 72.6303C11.6919 72.8043 11.6306 72.9181 11.5429 72.9727C11.4556 73.0273 11.3745 73.061 11.2995 73.0727L9.43275 73.4028ZM7.44862 77.2262L8.17054 73.6232L3.16763 74.4875L7.44862 77.2262Z" fill="#74BE0F"/>
<path d="M5.40535 61.4689C5.43494 61.3761 5.49361 61.3072 5.58238 61.2607C5.67116 61.2148 5.76248 61.2067 5.85482 61.2358L14.024 63.8225C14.1168 63.8521 14.1862 63.9113 14.2321 64C14.278 64.0893 14.2862 64.1801 14.2571 64.2725L14.0928 64.7908C14.0632 64.8842 14.0046 64.9531 13.9158 64.999C13.827 65.0454 13.7362 65.0536 13.6434 65.0245L10.0771 63.8949L8.66749 68.3464L12.2337 69.476C12.3266 69.5056 12.396 69.5648 12.4419 69.6536C12.4878 69.7424 12.496 69.8332 12.4669 69.9255L12.3026 70.4444C12.273 70.5373 12.2164 70.6072 12.1317 70.6546C12.047 70.702 11.9541 70.7092 11.8531 70.6776L3.68397 68.0908C3.59112 68.0612 3.52173 68.0026 3.47582 67.9133C3.4299 67.8245 3.42122 67.7337 3.45082 67.6408L3.6151 67.1225C3.64469 67.0296 3.70336 66.9607 3.79264 66.9143C3.88142 66.8684 3.97223 66.8602 4.06508 66.8893L7.53028 67.9862L8.93994 63.5342L5.47473 62.4373C5.38188 62.4077 5.313 62.349 5.26658 62.2597C5.22066 62.171 5.2125 62.0801 5.24158 61.9878L5.40535 61.4689Z" fill="#74BE0F"/>
<path d="M15.4674 55.9991L13.6088 60.2103L14.9445 61.5542C14.9986 61.6073 15.0455 61.6807 15.0858 61.7761C15.1261 61.8715 15.1103 61.9996 15.0389 62.1613L14.8409 62.6103C14.8088 62.6838 14.7552 62.7343 14.6792 62.7639C14.6037 62.7935 14.5292 62.7919 14.4562 62.7598C14.4159 62.7419 14.3664 62.7006 14.3078 62.6363L7.96255 56.2833C7.89113 56.2037 7.82939 56.1037 7.77582 55.9833C7.72276 55.8634 7.73144 55.7221 7.80286 55.5603L8.12428 54.8323C8.19571 54.6705 8.29366 54.5685 8.41866 54.5267C8.54366 54.4853 8.65896 54.4639 8.7661 54.4629L17.7306 54.8813C17.8174 54.8807 17.8816 54.8899 17.9219 54.9078C17.9949 54.9399 18.0459 54.994 18.075 55.0695C18.1041 55.145 18.1031 55.2195 18.0709 55.2925L17.873 55.7415C17.8015 55.9032 17.7174 56.0017 17.6199 56.0358C17.5225 56.07 17.4362 56.0853 17.3607 56.0807L15.4674 55.9991ZM12.7037 59.3032L14.1874 55.9415L9.11609 55.7042L12.7037 59.3032Z" fill="#74BE0F"/>
<path d="M20.9206 42.1236L20.0864 41.5358C27.6449 30.8027 37.6737 21.7236 49.0881 15.2803L49.5901 16.1685C38.3063 22.5379 28.3928 31.5129 20.9206 42.1236Z" fill="#74BE0F"/>
<path d="M138.231 167.182L137.729 166.293C149.013 159.925 158.926 150.95 166.399 140.339L167.233 140.927C159.674 151.66 149.645 160.739 138.231 167.182Z" fill="#74BE0F"/>
</svg>
