<svg width="56" height="56" viewBox="0 0 56 56" fill="none" xmlns="http://www.w3.org/2000/svg">
<path d="M1.37674 50.5717C1.12777 50.5484 0.902761 50.4294 0.742893 50.2368C0.583034 50.0442 0.507936 49.801 0.53117 49.5522C0.554423 49.3031 0.673344 49.0779 0.866004 48.9181L10.404 41.0086L10.0978 40.578C7.43065 36.8263 6.19856 32.2243 6.62843 27.6198C7.10779 22.485 9.55826 17.844 13.5285 14.5517C15.5388 12.8847 17.9079 11.3997 20.5696 10.138L20.5856 10.1304L20.6011 10.1219C20.6292 10.1064 20.6605 10.0914 20.6943 10.0773L20.7165 10.0674C22.3766 9.28863 24.1732 8.58597 26.0564 7.97892C27.5951 7.48317 29.2369 7.03686 30.936 6.65227L30.9887 6.64035C33.6203 6.0471 36.429 5.59208 39.3369 5.28797C47.5693 4.42616 53.9557 5.00362 54.2236 5.02863C54.4726 5.05187 54.6977 5.17078 54.8575 5.36334C55.0173 5.55591 55.0924 5.79904 55.0692 6.04821C55.0442 6.31608 54.4294 12.6991 52.0586 20.6296C51.221 23.4322 50.2535 26.1093 49.1829 28.5868L49.1669 28.6242C48.4709 30.2306 47.7274 31.7631 46.9556 33.1826C46.0118 34.9189 44.9887 36.5543 43.9152 38.0433L43.9014 38.0633C43.8814 38.0938 43.8608 38.1218 43.8404 38.1465L43.8291 38.1602L43.8187 38.1744C42.0853 40.5579 40.1874 42.6114 38.1779 44.2777C34.2078 47.5695 29.1933 49.1184 24.0581 48.639C19.4537 48.2091 15.1594 46.1466 11.9664 42.8314L11.5999 42.4507L2.06162 50.3599C1.86906 50.5197 1.62592 50.5949 1.37674 50.5717ZM13.0414 41.2551L13.4783 41.6968C16.3409 44.5907 20.1601 46.3936 24.2322 46.7737C28.8694 47.2066 33.3975 45.8082 36.9821 42.836C38.2615 41.7748 39.5005 40.5381 40.6648 39.1601L41.3684 38.3276L19.081 36.2469L13.0414 41.2551ZM19.0172 13.0553C17.447 13.945 16.0026 14.9337 14.7241 15.994C11.1392 18.9667 8.92643 23.1573 8.49356 27.794C8.11336 31.8665 9.17847 35.9536 11.4926 39.3022L11.8459 39.8134L17.8859 34.8043L19.9657 12.5178L19.0172 13.0553ZM29.6871 27.452L21.1203 34.5558L42.6595 36.5666L42.8488 36.2919C44.1797 34.3598 45.4307 32.1745 46.5666 29.7964L46.9183 29.0603L29.6871 27.452ZM29.3121 8.9882C26.766 9.66403 24.3867 10.4887 22.2403 11.4394L21.9352 11.5746L19.9249 33.1132L28.4919 26.0094L30.1005 8.779L29.3121 8.9882ZM41.8086 15.3233C42.0577 15.3465 42.2829 15.4654 42.4426 15.6581C42.7723 16.0556 42.717 16.6473 42.3194 16.9773L31.7263 25.761L47.7092 27.2527L47.8698 26.8645C48.749 24.7383 49.5487 22.4794 50.2467 20.1504C51.8932 14.6565 52.6871 9.82687 53.0137 7.43688L53.0976 6.82265L52.4785 6.79147C50.0694 6.67001 45.1765 6.55611 39.4726 7.15734C37.0547 7.41222 34.6867 7.78004 32.4345 8.25042L32.0233 8.33634L30.5312 24.319L41.1235 15.535C41.3162 15.3752 41.5595 15.3 41.8086 15.3233Z" fill="white"/>
</svg>
