<svg width="46" height="47" viewBox="0 0 46 47" fill="none" xmlns="http://www.w3.org/2000/svg">
<path d="M26.6486 47C20.9803 47 16.3689 42.2883 16.3689 36.4968C16.3689 30.7054 20.9803 25.9937 26.6486 25.9937C27.1728 25.9937 27.5976 26.4278 27.5976 26.9633C27.5976 27.4988 27.1728 27.933 26.6486 27.933C22.0269 27.933 18.2669 31.7747 18.2669 36.4968C18.2669 41.219 22.0269 45.0607 26.6486 45.0607C31.2702 45.0607 35.0302 41.219 35.0302 36.4968C35.0302 33.2042 33.1475 30.1647 30.2338 28.7535C29.7603 28.5242 29.5582 27.9459 29.7828 27.462C30.0074 26.9779 30.5735 26.7721 31.0469 27.0011C34.6196 28.7315 36.9282 32.4589 36.9282 36.4968C36.9282 42.2882 32.3168 47 26.6486 47ZM24.745 41.582C24.4946 41.582 24.2542 41.4809 24.0764 41.3006C23.8978 41.1194 23.7969 40.8732 23.796 40.6159C23.796 40.6159 23.7855 37.6318 23.7855 36.4877C23.7855 35.5492 23.7795 32.3828 23.7795 32.3828C23.779 32.1254 23.8787 31.8782 24.0568 31.6959C24.2348 31.5136 24.4765 31.4113 24.7285 31.4113H27.0102C29.5237 31.4113 31.2125 33.4549 31.2125 36.4966C31.2125 39.39 29.4804 41.521 27.0936 41.5637C26.4438 41.5752 24.8175 41.5816 24.7485 41.5819L24.745 41.582ZM25.6793 33.3507C25.6811 34.3632 25.6835 35.8848 25.6835 36.4877C25.6835 37.2093 25.6877 38.6643 25.6908 39.6378C26.1838 39.6347 26.747 39.6303 27.0606 39.6246C28.1824 39.6046 29.3145 38.6297 29.3145 36.4966C29.3145 34.9757 28.7092 33.3505 27.0102 33.3505L25.6793 33.3507ZM10.2798 30.2753C6.04304 30.2753 2.29281 27.6768 0.725803 23.6554C0.531952 23.1578 0.769457 22.594 1.25636 22.3958C1.74327 22.1982 2.29521 22.4404 2.48906 22.938C3.76694 26.2172 6.8249 28.3361 10.2797 28.3361C14.9013 28.3361 18.6614 24.4943 18.6614 19.7721C18.6614 15.0499 14.9013 11.2082 10.2797 11.2082C5.65799 11.2082 1.89802 15.0499 1.89802 19.7721C1.89802 20.3076 1.47324 20.7417 0.949009 20.7417C0.424777 20.7417 0 20.3076 0 19.7721C0 13.9806 4.61143 9.26888 10.2797 9.26888C15.948 9.26888 20.5595 13.9806 20.5595 19.7721C20.5596 25.5637 15.9482 30.2753 10.2798 30.2753ZM33.8281 24.873C27.1165 24.873 21.6563 19.294 21.6563 12.4365C21.6563 5.57907 27.1165 0 33.8281 0C38.9544 0 43.5603 3.31114 45.2893 8.23951C45.466 8.74359 45.2094 9.29874 44.7161 9.47949C44.2228 9.66023 43.6795 9.39804 43.5025 8.89395C42.0431 4.73418 38.1554 1.93941 33.8281 1.93941C28.1631 1.93941 23.5543 6.64839 23.5543 12.4366C23.5543 18.2249 28.1632 22.9339 33.8281 22.9339C39.4931 22.9339 44.102 18.2248 44.102 12.4366C44.102 11.9011 44.5268 11.467 45.051 11.467C45.5752 11.467 46 11.9011 46 12.4366C46.0001 19.294 40.5398 24.873 33.8281 24.873ZM13.5572 24.0782C13.1738 24.0782 12.8125 23.839 12.6692 23.4506L12.1315 21.9951H8.43302L7.88943 23.4533C7.70279 23.9538 7.15401 24.205 6.66483 24.0143C6.17501 23.8237 5.92916 23.2635 6.11567 22.7631L9.23298 14.4002C9.23563 14.3927 9.23867 14.3854 9.24146 14.378C9.41708 13.9398 9.82971 13.6566 10.2931 13.6562C10.7559 13.6562 11.1697 13.9387 11.3459 14.3762C11.3493 14.3848 11.3528 14.3938 11.356 14.4027L14.4449 22.7659C14.6301 23.2669 14.3826 23.8264 13.8922 24.0155C13.7819 24.0581 13.6685 24.0782 13.5572 24.0782ZM9.15592 20.0558H11.4152L10.2907 17.0113L9.15592 20.0558ZM39.8894 17.9058C39.3652 17.9058 38.9404 17.4717 38.9404 16.9362V14.1586C38.9404 13.6231 39.3652 13.189 39.8894 13.189C40.4136 13.189 40.8384 13.6231 40.8384 14.1586V16.9362C40.8384 17.4717 40.4135 17.9058 39.8894 17.9058ZM31.0415 17.6472C30.7905 17.6472 30.5497 17.5457 30.372 17.3647C30.193 17.1828 30.0925 16.9355 30.0925 16.6776V8.19529C30.0925 7.65979 30.5172 7.22565 31.0415 7.22565H33.4531C35.0297 7.22565 36.3124 8.53622 36.3124 10.1471C36.3124 10.7611 36.126 11.3314 35.8083 11.8021C36.5674 12.3972 37.0578 13.3334 37.0578 14.3843C37.0578 16.178 35.6297 17.6372 33.8743 17.6372C33.2633 17.6372 31.0458 17.6472 31.0458 17.6472H31.0415ZM31.9905 13.0752V15.7039C32.6726 15.7012 33.5289 15.698 33.8742 15.698C34.583 15.698 35.1597 15.1087 35.1597 14.3845C35.1597 13.6602 34.5829 13.0709 33.8742 13.0709C33.6097 13.0708 32.6598 13.0734 31.9905 13.0752ZM31.9905 9.16493V11.1343C32.5022 11.1319 33.1561 11.1292 33.4531 11.1292C33.983 11.1292 34.4144 10.6886 34.4144 10.147C34.4144 9.60541 33.9831 9.1648 33.4531 9.1648L31.9905 9.16493Z" fill="white"/>
</svg>
