<svg width="56" height="58" viewBox="0 0 56 58" fill="none" xmlns="http://www.w3.org/2000/svg">
<path d="M55.1472 41.7005C54.7794 35.8868 52.2027 28.2574 47.4887 19.0248C43.9986 12.1886 40.5652 6.9616 40.5309 6.90957C40.4295 6.75564 40.286 6.63647 40.1188 6.56727L26.525 0.942266C26.418 0.8979 26.3038 0.875069 26.1885 0.875H23.4697C23.3255 0.874996 23.1833 0.910616 23.055 0.978897C22.9268 1.04718 22.8161 1.14615 22.7323 1.26758L18.201 7.83008C18.0912 7.98908 18.0322 8.1796 18.0322 8.375V10.25C18.0331 10.9957 18.3198 11.7105 18.8295 12.2378C19.3391 12.765 20.0302 13.0616 20.751 13.0625H30.2919C30.7971 13.0607 31.2928 13.2054 31.7226 13.4802C32.1524 13.755 32.4992 14.1489 32.7236 14.6172L36.9389 23.3384C35.7939 25.5775 35.4255 29.4777 35.3076 31.8004C34.0578 30.9379 32.1131 29.9371 29.814 29.9371C26.883 29.9371 24.5206 31.0641 23.5043 31.6408C21.8531 30.5224 16.3802 27.125 10.7822 27.125C4.13941 27.125 1.20079 30.0861 1.07889 30.2121C0.994742 30.2991 0.92799 30.4025 0.88245 30.5162C0.836909 30.63 0.813472 30.7519 0.813477 30.875V56.1875C0.813477 56.4361 0.908956 56.6746 1.07891 56.8504C1.24887 57.0262 1.47937 57.125 1.71973 57.125H13.501C13.6854 57.125 13.8655 57.0667 14.0171 56.958C14.1687 56.8493 14.2847 56.6954 14.3495 56.5167L16.6604 50.1432C17.2159 50.4669 17.7957 50.7439 18.3942 50.9716C20.9012 51.9443 24.1334 52.4375 28.001 52.4375C29.9074 52.4375 34.4503 51.907 43.4567 48.3543C48.217 46.4765 53.6294 43.9202 54.7634 42.6678C55.0395 42.3629 55.1685 42.0375 55.1472 41.7005ZM42.9582 46.544C36.5129 49.0977 31.0612 50.5625 28.001 50.5625C19.7118 50.5625 16.9806 48.1352 16.8559 48.0195C16.7513 47.9071 16.6207 47.8241 16.4764 47.7786C16.3321 47.733 16.1789 47.7264 16.0315 47.7593C15.8813 47.7929 15.7419 47.8656 15.6264 47.9704C15.5109 48.0752 15.4231 48.2087 15.3712 48.3583L12.8729 55.25H2.62598V31.3102C3.16046 30.8981 3.73869 30.5504 4.34944 30.2739C5.59836 29.6928 7.72816 29 10.7822 29C16.7521 29 22.8821 33.468 22.943 33.5129C23.0926 33.6234 23.2712 33.6843 23.4551 33.6873C23.6389 33.6904 23.8194 33.6355 23.9724 33.53C23.9973 33.5129 26.5012 31.8125 29.8135 31.8125C32.4353 31.8125 34.5826 33.5093 35.2776 34.1277C35.3807 35.2722 35.8873 38.378 38.3732 40.0925C38.5732 40.2289 38.8172 40.2778 39.052 40.2285C39.2867 40.1793 39.4931 40.036 39.626 39.8298C39.7588 39.6237 39.8074 39.3715 39.7611 39.1284C39.7148 38.8853 39.5773 38.6711 39.3787 38.5325C37.1186 36.9738 37.0635 33.6957 37.0635 33.6854C37.0644 31.6755 37.3641 26.0048 38.7237 23.8951C38.8124 23.7576 38.8643 23.5982 38.8743 23.4333C38.8842 23.2683 38.8518 23.1035 38.7804 22.9557L34.3447 13.7786C33.9706 12.9982 33.3927 12.3417 32.6763 11.8837C31.96 11.4258 31.134 11.1846 30.2919 11.1875H20.751C20.5107 11.1872 20.2804 11.0884 20.1105 10.9126C19.9406 10.7368 19.845 10.4986 19.8447 10.25V9.3125H25.2822C25.5226 9.3125 25.7531 9.21373 25.923 9.03791C26.093 8.8621 26.1885 8.62364 26.1885 8.375C26.1885 8.12636 26.093 7.8879 25.923 7.71209C25.7531 7.53627 25.5226 7.4375 25.2822 7.4375H20.6994L23.9361 2.75H26.0139L39.1857 8.20039C40.6639 10.4953 52.349 28.994 53.3166 41.5089C52.4565 42.2557 48.5774 44.3177 42.9585 46.544H42.9582Z" fill="white"/>
</svg>
