<svg width="20" height="22" viewBox="0 0 20 22" fill="none" xmlns="http://www.w3.org/2000/svg">
<g opacity="0.8">
<path d="M19.1457 12.2269C19.7752 6.92775 18.8432 3.58222 17.1621 2.06904L17.163 2.06816C14.4497 -0.515933 5.28619 -0.898404 2.04002 2.18422C0.582232 3.69213 0.0687539 5.90519 0.0124823 8.64491C-0.0437893 11.3855 -0.110612 16.5194 4.67335 17.9121H4.67775L4.67335 20.039C4.67335 20.039 4.64082 20.9007 5.19123 21.0739C5.82077 21.2779 6.10564 20.8778 8.06372 18.539C11.338 18.823 13.8527 18.1724 14.1384 18.0774C14.7996 17.8559 18.5408 17.3609 19.1457 12.2269ZM8.3864 17.0426C8.3864 17.0426 6.31402 19.6267 5.66954 20.2975C5.45852 20.5156 5.22728 20.4954 5.23079 20.0628C5.23079 19.7788 5.24662 16.5317 5.24662 16.5317C1.19067 15.3694 1.42982 10.9978 1.47379 8.71085C1.51775 6.42306 1.93627 4.54939 3.17073 3.28768C6.0186 0.617412 14.0522 1.21442 16.0991 3.1382C18.6015 5.35654 17.7108 11.6238 17.7161 11.8374C17.2017 16.1229 14.1701 16.3946 13.6126 16.5801C13.3743 16.6592 11.1631 17.2281 8.3864 17.0426Z" fill="#8E24AA"/>
<path d="M9.53318 3.78967C9.19467 3.78967 9.19467 4.31722 9.53318 4.32162C12.1595 4.34184 14.3224 6.17242 14.3462 9.53025C14.3462 9.88459 14.8649 9.88019 14.8605 9.52586H14.8596C14.8315 5.90777 12.4699 3.8099 9.53318 3.78967Z" fill="#8E24AA"/>
<path d="M12.9874 8.97375C12.9795 9.32369 13.4974 9.34039 13.5017 8.98606C13.5448 6.99105 12.3148 5.34775 10.0032 5.17453C9.66473 5.14992 9.62956 5.68186 9.96719 5.70648C11.9719 5.85859 13.0278 7.22669 12.9874 8.97375Z" fill="#8E24AA"/>
<path d="M12.4334 11.2431C11.999 10.9916 11.5568 11.1481 11.3739 11.3952L10.9914 11.8902C10.7971 12.1417 10.434 12.1083 10.434 12.1083C7.78392 11.4075 7.07525 8.63437 7.07525 8.63437C7.07525 8.63437 7.04272 8.25894 7.28539 8.05759L7.7637 7.66193C8.00285 7.47201 8.15408 7.01481 7.91053 6.56551C7.25989 5.38996 6.8229 4.98463 6.60046 4.67338C6.36658 4.38059 6.01488 4.31465 5.64911 4.51248H5.6412C4.88066 4.95737 4.04801 5.79002 4.31442 6.64728C4.76899 7.55114 5.60427 10.4324 8.26662 12.6094C9.51779 13.639 11.4978 14.6941 12.3384 14.9377L12.3463 14.95C13.1746 15.2261 13.9799 14.3609 14.4099 13.5775V13.5713C14.6007 13.1924 14.5374 12.8336 14.2587 12.5989C13.7645 12.1171 13.0189 11.5851 12.4334 11.2431Z" fill="#8E24AA"/>
<path d="M10.3656 7.137C11.2106 7.18623 11.6203 7.62761 11.6643 8.53412C11.6801 8.88845 12.1945 8.86383 12.1787 8.5095C12.1224 7.32603 11.5051 6.6666 10.3938 6.60505C10.0553 6.58483 10.0236 7.11677 10.3656 7.137Z" fill="#8E24AA"/>
</g>
</svg>
