<svg width="61" height="71" viewBox="0 0 61 71" fill="none" xmlns="http://www.w3.org/2000/svg">
<g clip-path="url(#clip0)">
<path d="M56.92 9.33005C56.893 9.33005 56.866 9.33005 56.838 9.33205C24.966 11.037 -2.92447e-06 37.4001 -1.31134e-07 69.3521C-5.86607e-08 70.1811 0.671 70.8521 1.5 70.8521C2.329 70.8521 3 70.1811 3 69.3521C3 38.9951 26.719 13.947 56.999 12.328C57.826 12.284 58.461 11.577 58.417 10.75C58.374 9.95005 57.711 9.33005 56.92 9.33005Z" fill="black"/>
<path d="M46.0962 1.51021e-05L44.3042 2.33302L55.8092 11.151L46.1742 21.983L48.3742 23.937L60.1072 10.742L46.0962 1.51021e-05Z" fill="black"/>
</g>
<defs>
<clipPath id="clip0">
<rect width="60.107" height="70.852" fill="white" transform="matrix(1 -8.74228e-08 -8.74228e-08 -1 0 70.8521)"/>
</clipPath>
</defs>
</svg>
