<svg width="21" height="21" viewBox="0 0 21 21" fill="none" xmlns="http://www.w3.org/2000/svg">
<g opacity="0.8">
<path d="M15.5388 12.0669C15.4979 12.0473 13.9669 11.2934 13.6949 11.1955C13.5839 11.1556 13.4649 11.1167 13.3383 11.1167C13.1316 11.1167 12.958 11.2197 12.8227 11.4221C12.6697 11.6494 12.2068 12.1905 12.0638 12.3522C12.0451 12.3735 12.0196 12.3991 12.0043 12.3991C11.9906 12.3991 11.7537 12.3015 11.6819 12.2703C10.0396 11.557 8.79306 9.84144 8.62211 9.55216C8.59771 9.51057 8.59668 9.4917 8.59648 9.4917C8.60246 9.46968 8.65771 9.41431 8.68622 9.38576C8.7696 9.30328 8.85996 9.1945 8.94736 9.0893C8.98875 9.03946 9.03022 8.98955 9.0709 8.9425C9.19772 8.79497 9.25416 8.68041 9.31962 8.54773L9.35391 8.47878C9.51375 8.16124 9.37725 7.89332 9.33312 7.80678C9.2969 7.73439 8.65049 6.17424 8.58175 6.01034C8.41646 5.61482 8.19809 5.43066 7.89462 5.43066C7.86644 5.43066 7.89462 5.43066 7.77653 5.43563C7.63273 5.4417 6.84966 5.54477 6.50345 5.76305C6.13628 5.99455 5.51514 6.73238 5.51514 8.03003C5.51514 9.19791 6.25629 10.3006 6.57449 10.72C6.5824 10.7306 6.59692 10.752 6.61801 10.7829C7.83662 12.5625 9.3558 13.8815 10.8958 14.4967C12.3784 15.0889 13.0805 15.1574 13.4796 15.1574C13.4797 15.1574 13.4797 15.1574 13.4797 15.1574C13.6474 15.1574 13.7817 15.1442 13.9001 15.1325L13.9753 15.1254C14.4874 15.08 15.613 14.4967 15.869 13.7853C16.0707 13.2249 16.1239 12.6126 15.9897 12.3904C15.8977 12.2392 15.7393 12.1632 15.5388 12.0669Z" fill="#8DC63F"/>
<path d="M10.6864 0C4.99895 0 0.371856 4.59231 0.371856 10.237C0.371856 12.0627 0.860434 13.8498 1.78603 15.4139L0.0144454 20.6397C-0.0185722 20.7371 0.00599621 20.8449 0.0780607 20.9183C0.130109 20.9714 0.200656 21 0.272721 21C0.300324 21 0.328133 20.9959 0.355285 20.9872L5.80438 19.2556C7.2955 20.0523 8.98083 20.4729 10.6865 20.4729C16.3734 20.4729 21 15.8811 21 10.237C21 4.59231 16.3734 0 10.6864 0ZM10.6864 18.3405C9.08148 18.3405 7.52703 17.8771 6.19078 17.0002C6.14587 16.9707 6.0937 16.9556 6.0412 16.9556C6.01343 16.9556 5.98562 16.9598 5.95855 16.9684L3.22888 17.8361L4.11006 15.2364C4.13857 15.1523 4.12429 15.0595 4.07179 14.9877C3.05424 13.5974 2.51636 11.9547 2.51636 10.237C2.51636 5.76815 6.18139 2.13244 10.6863 2.13244C15.1907 2.13244 18.8553 5.76815 18.8553 10.237C18.8554 14.7053 15.1908 18.3405 10.6864 18.3405Z" fill="#8DC63F"/>
</g>
</svg>
